<svg xmlns="http://www.w3.org/2000/svg" xmlns:xlink="http://www.w3.org/1999/xlink" width="428.184" height="38.184" viewBox="0 0 428.184 38.184">
  <defs>
    <clipPath id="clip-path">
      <rect width="428.184" height="38.184" fill="none"/>
    </clipPath>
  </defs>
  <g id="リピートグリッド_2" data-name="リピートグリッド 2" clip-path="url(#clip-path)">
    <g transform="translate(-697.849 -559.718)">
      <rect id="長方形_157" data-name="長方形 157" width="27" height="27" transform="translate(716.941 559.718) rotate(45)" fill="#ecf6f6"/>
    </g>
    <g transform="translate(-658.849 -559.718)">
      <rect id="長方形_157-2" data-name="長方形 157" width="27" height="27" transform="translate(716.941 559.718) rotate(45)" fill="#ecf6f6"/>
    </g>
    <g transform="translate(-619.849 -559.718)">
      <rect id="長方形_157-3" data-name="長方形 157" width="27" height="27" transform="translate(716.941 559.718) rotate(45)" fill="#ecf6f6"/>
    </g>
    <g transform="translate(-580.849 -559.718)">
      <rect id="長方形_157-4" data-name="長方形 157" width="27" height="27" transform="translate(716.941 559.718) rotate(45)" fill="#ecf6f6"/>
    </g>
    <g transform="translate(-541.849 -559.718)">
      <rect id="長方形_157-5" data-name="長方形 157" width="27" height="27" transform="translate(716.941 559.718) rotate(45)" fill="#ecf6f6"/>
    </g>
    <g transform="translate(-502.849 -559.718)">
      <rect id="長方形_157-6" data-name="長方形 157" width="27" height="27" transform="translate(716.941 559.718) rotate(45)" fill="#ecf6f6"/>
    </g>
    <g transform="translate(-463.849 -559.718)">
      <rect id="長方形_157-7" data-name="長方形 157" width="27" height="27" transform="translate(716.941 559.718) rotate(45)" fill="#ecf6f6"/>
    </g>
    <g transform="translate(-424.849 -559.718)">
      <rect id="長方形_157-8" data-name="長方形 157" width="27" height="27" transform="translate(716.941 559.718) rotate(45)" fill="#ecf6f6"/>
    </g>
    <g transform="translate(-385.849 -559.718)">
      <rect id="長方形_157-9" data-name="長方形 157" width="27" height="27" transform="translate(716.941 559.718) rotate(45)" fill="#ecf6f6"/>
    </g>
    <g transform="translate(-346.849 -559.718)">
      <rect id="長方形_157-10" data-name="長方形 157" width="27" height="27" transform="translate(716.941 559.718) rotate(45)" fill="#ecf6f6"/>
    </g>
    <g transform="translate(-307.849 -559.718)">
      <rect id="長方形_157-11" data-name="長方形 157" width="27" height="27" transform="translate(716.941 559.718) rotate(45)" fill="#ecf6f6"/>
    </g>
  </g>
</svg>
