<svg xmlns="http://www.w3.org/2000/svg" width="339.946" height="349.925" viewBox="0 0 339.946 349.925">
  <g id="hotel" transform="translate(-1115.68 -351.577)">
    <g id="ホテル" transform="translate(1115.68 351.577)">
      <g id="グループ_112" data-name="グループ 112" transform="translate(0 208.248)">
        <g id="グループ_109" data-name="グループ 109" transform="translate(252.638)">
          <path id="パス_196" data-name="パス 196" d="M2459.628,1566.25a173.309,173.309,0,0,0-2.65,72.024h-8.7a118.566,118.566,0,0,1-.772-46.7,116.765,116.765,0,0,1,7.551-24.8Z" transform="translate(-2417.632 -1518.246)" fill="#3a4796"/>
          <g id="グループ_108" data-name="グループ 108">
            <path id="パス_197" data-name="パス 197" d="M2356.7,1423.612c.235-8.809-3.6-17.093-10.421-21.293-9.74-6-24.476-3-32.915,8.524l11.6.592a19.959,19.959,0,0,0,6.511-2.131l-1.539,3.078a16.266,16.266,0,0,0,6.63-1.065l-3.482,3.812a17.408,17.408,0,0,0,7.39-1.444l-2.758,3.053Z" transform="translate(-2313.333 -1386.519)" fill="#3a4796"/>
            <path id="パス_198" data-name="パス 198" d="M2518.83,1481.255c5.818-6.619,14.262-10.085,22.12-8.527,11.219,2.225,19.986,14.444,18.339,28.631l-8.91-7.455a19.942,19.942,0,0,1-3.326-5.99l-.965,3.3a16.372,16.372,0,0,1-3-3.323,16.168,16.168,0,0,1-1.142-1.967l-.039,5.163a17.415,17.415,0,0,1-4.436-6.083q-.027,2.057-.054,4.114Z" transform="translate(-2475.454 -1444.162)" fill="#3a4796"/>
            <path id="パス_199" data-name="パス 199" d="M2356.588,1487.275c-1.164-1.031-10.908-9.391-22.848-6.788-11.907,2.6-21.109,15.03-20.488,29.89L2324,1502.4l3.159-6.865q.284,1.8.569,3.6l4.932-7.271q.126,2.719.253,5.438l3.983-5.88v4.489a40.2,40.2,0,0,1,5.438-3.73A41,41,0,0,1,2356.588,1487.275Z" transform="translate(-2313.222 -1450.182)" fill="#3a4796"/>
            <path id="パス_200" data-name="パス 200" d="M2518.782,1514.248c1.4-.12,12.639-.9,19.611,7.084,7.127,8.164,6.927,22.2-1.884,32.54l-2.577-11.889q.707-3.284,1.413-6.568l-3.076,2.661.582-7.483-3.457,3.581q.274-3.246.547-6.491l-2.494,2.661a24.875,24.875,0,0,0-1.58-6.236A25.522,25.522,0,0,0,2518.782,1514.248Z" transform="translate(-2475.417 -1477.155)" fill="#3a4796"/>
            <path id="パス_201" data-name="パス 201" d="M2444.931,1375.8c.785-.727,9.365-8.916,7.635-19.257-1.75-10.455-13.367-19.1-27.38-17.684l8.077,9.1,6.136,2.736-3.963.913,6.384,3.946-4.931.677,5.563,3.389-3.62.443a60.021,60.021,0,0,1,6.1,15.739Z" transform="translate(-2401.565 -1338.705)" fill="#3a4796"/>
            <path id="パス_202" data-name="パス 202" d="M2518.782,1429.291c.019-1.1.437-14.033,9.964-19.937,9.7-6.01,25.241-2.517,33.979,10.386l-11.449.637-5.39-4.011,1.145,3.9-6.567-3.634,1.824,4.631-5.679-3.19,1.386,3.373a38.6,38.6,0,0,0-19.212,7.842Z" transform="translate(-2475.417 -1392.198)" fill="#3a4796"/>
          </g>
          <path id="パス_203" data-name="パス 203" d="M2450.15,1512.044c-1.662,2.836-1.8,7.47,1.274,9.841s7.507,1.009,9.841-1.274c3.137-3.07,3.637-8.9.577-11.518C2458.617,1506.333,2452.494,1508.043,2450.15,1512.044Z" transform="translate(-2420.343 -1472.081)" fill="#d4c040"/>
          <path id="パス_204" data-name="パス 204" d="M2496.131,1525.184c1.2,2.7,4.506,5.222,7.847,4.216s4.662-4.95,4.216-7.847c-.6-3.894-4.592-7.307-8.1-6.444C2496.392,1516.02,2494.438,1521.381,2496.131,1525.184Z" transform="translate(-2457.058 -1477.788)" fill="#d4c040"/>
        </g>
        <g id="グループ_111" data-name="グループ 111">
          <path id="パス_205" data-name="パス 205" d="M1330.465,1566.25a173.31,173.31,0,0,1,2.649,72.024h8.7a118.577,118.577,0,0,0,.772-46.7,116.75,116.75,0,0,0-7.551-24.8Z" transform="translate(-1285.153 -1518.246)" fill="#3a4796"/>
          <g id="グループ_110" data-name="グループ 110">
            <path id="パス_206" data-name="パス 206" d="M1323.935,1423.612c-.235-8.809,3.6-17.093,10.422-21.293,9.74-6,24.476-3,32.914,8.524l-11.6.592a19.952,19.952,0,0,1-6.512-2.131l1.539,3.078a16.267,16.267,0,0,1-6.63-1.065l3.482,3.812a17.407,17.407,0,0,1-7.389-1.444l2.758,3.053Z" transform="translate(-1279.993 -1386.519)" fill="#3a4796"/>
            <path id="パス_207" data-name="パス 207" d="M1171.859,1481.255c-5.818-6.619-14.262-10.085-22.12-8.527-11.22,2.225-19.986,14.444-18.339,28.631l8.911-7.455a19.966,19.966,0,0,0,3.326-5.99l.965,3.3a16.259,16.259,0,0,0,4.137-5.289q.019,2.581.039,5.163a17.411,17.411,0,0,0,4.436-6.083q.027,2.057.054,4.114Z" transform="translate(-1127.927 -1444.162)" fill="#3a4796"/>
            <path id="パス_208" data-name="パス 208" d="M1323.973,1487.275c1.164-1.031,10.908-9.391,22.848-6.788,11.907,2.6,21.109,15.03,20.488,29.89l-10.752-7.978-3.159-6.865-.569,3.6-4.932-7.271q-.126,2.719-.253,5.438l-3.983-5.88v4.489a40.138,40.138,0,0,0-5.438-3.73A41,41,0,0,0,1323.973,1487.275Z" transform="translate(-1280.031 -1450.182)" fill="#3a4796"/>
            <path id="パス_209" data-name="パス 209" d="M1231.7,1514.248c-1.4-.12-12.64-.9-19.611,7.084-7.127,8.164-6.927,22.2,1.884,32.54l2.577-11.889-1.413-6.568,3.076,2.661-.582-7.483,3.457,3.581q-.274-3.246-.547-6.491l2.494,2.661a24.849,24.849,0,0,1,1.58-6.236A25.52,25.52,0,0,1,1231.7,1514.248Z" transform="translate(-1187.755 -1477.155)" fill="#3a4796"/>
            <path id="パス_210" data-name="パス 210" d="M1294.559,1375.8c-.785-.727-9.365-8.916-7.634-19.257,1.75-10.455,13.367-19.1,27.38-17.684l-8.077,9.1-6.136,2.736,3.963.913-6.384,3.946,4.931.677-5.563,3.389,3.62.443a60.038,60.038,0,0,0-6.1,15.739Z" transform="translate(-1250.617 -1338.705)" fill="#3a4796"/>
            <path id="パス_211" data-name="パス 211" d="M1159.622,1429.291c-.019-1.1-.437-14.033-9.964-19.937-9.7-6.01-25.241-2.517-33.979,10.386l11.449.637,5.39-4.011-1.145,3.9,6.567-3.634-1.824,4.631,5.679-3.19-1.386,3.373a38.6,38.6,0,0,1,19.212,7.842Z" transform="translate(-1115.68 -1392.198)" fill="#3a4796"/>
          </g>
          <path id="パス_212" data-name="パス 212" d="M1336.835,1512.044c1.662,2.836,1.8,7.47-1.274,9.841s-7.507,1.009-9.841-1.274c-3.137-3.07-3.637-8.9-.577-11.518C1328.368,1506.333,1334.49,1508.043,1336.835,1512.044Z" transform="translate(-1279.334 -1472.081)" fill="#d4c040"/>
          <path id="パス_213" data-name="パス 213" d="M1298.89,1525.184c-1.2,2.7-4.506,5.222-7.846,4.216s-4.662-4.95-4.216-7.847c.6-3.894,4.591-7.307,8.1-6.444C1298.629,1516.02,1300.583,1521.381,1298.89,1525.184Z" transform="translate(-1250.655 -1477.788)" fill="#d4c040"/>
        </g>
      </g>
      <g id="グループ_117" data-name="グループ 117" transform="translate(62.3 18.336)">
        <g id="グループ_114" data-name="グループ 114" transform="translate(166.401)">
          <path id="パス_214" data-name="パス 214" d="M2214.708,477.414h-14.952l12.53-38,2.423-.917Z" transform="translate(-2199.756 -438.493)" fill="#2e376a"/>
          <g id="グループ_113" data-name="グループ 113" transform="translate(9.392)">
            <rect id="長方形_9" data-name="長方形 9" width="40.904" height="3.451" transform="translate(0 35.47)" fill="#2e376a"/>
            <path id="パス_215" data-name="パス 215" d="M2279.622,438.493h-29.784l-5.56,35.56h40.9Z" transform="translate(-2244.278 -438.493)" fill="#3a4796"/>
            <rect id="長方形_10" data-name="長方形 10" width="40.904" height="265.441" transform="translate(0 38.921)" fill="#e8f4f3"/>
          </g>
        </g>
        <g id="グループ_116" data-name="グループ 116" transform="translate(0 0)">
          <path id="パス_216" data-name="パス 216" d="M1578.529,477.416h14.952l-12.53-38-2.423-.917Z" transform="translate(-1543.185 -438.494)" fill="#2e376a"/>
          <g id="グループ_115" data-name="グループ 115">
            <rect id="長方形_11" data-name="長方形 11" width="40.904" height="3.451" transform="translate(40.904 38.921) rotate(180)" fill="#2e376a"/>
            <path id="パス_217" data-name="パス 217" d="M1416.553,438.494h29.783l5.56,35.56h-40.9Z" transform="translate(-1410.992 -438.494)" fill="#3a4796"/>
            <rect id="長方形_12" data-name="長方形 12" width="40.904" height="265.441" transform="translate(40.904 304.362) rotate(180)" fill="#e8f4f3"/>
          </g>
        </g>
      </g>
      <rect id="長方形_13" data-name="長方形 13" width="134.889" height="3.451" transform="translate(103.204 53.806)" fill="#2e376a"/>
      <path id="パス_218" data-name="パス 218" d="M1721.437,351.577H1623.22l-18.336,53.9h134.889Z" transform="translate(-1501.68 -351.577)" fill="#3a4796"/>
      <rect id="長方形_14" data-name="長方形 14" width="134.889" height="265.441" transform="translate(103.204 57.257)" fill="#e8f4f3"/>
      <path id="パス_219" data-name="パス 219" d="M1763.2,394.063v-15.87h-17.571V364.473H1733.1v-12.9h-14.283v12.9h-12.528v13.719h-17.571v15.87h-15.864v44.871h106.209V394.063Z" transform="translate(-1555.314 -351.577)" fill="#e8f4f3"/>
      <g id="グループ_208" data-name="グループ 208" transform="translate(62.3 101.434)">
        <g id="グループ_149" data-name="グループ 149">
          <rect id="長方形_15" data-name="長方形 15" width="216.697" height="2.944" fill="#c1e3e2"/>
          <rect id="長方形_16" data-name="長方形 16" width="216.697" height="2.944" transform="translate(0 37.75)" fill="#c1e3e2"/>
          <g id="グループ_148" data-name="グループ 148" transform="translate(13.622)">
            <g id="グループ_123" data-name="グループ 123">
              <rect id="長方形_17" data-name="長方形 17" width="22.535" height="31.279" transform="translate(1.664 4.707)" fill="#c1e3e2"/>
              <g id="グループ_118" data-name="グループ 118">
                <path id="パス_220" data-name="パス 220" d="M1500.874,834.605h-24.756l-.554-2.216h25.863Z" transform="translate(-1475.564 -832.39)" fill="#3a4796"/>
                <rect id="長方形_18" data-name="長方形 18" width="22.535" height="1.764" transform="translate(1.664 2.944)" fill="#3a4796"/>
                <path id="パス_221" data-name="パス 221" d="M1501.833,843.62h-22.544l-1.107-.728h24.759Z" transform="translate(-1477.63 -840.676)" fill="#2e376a"/>
              </g>
              <g id="グループ_119" data-name="グループ 119" transform="translate(0 35.986)">
                <path id="パス_222" data-name="パス 222" d="M1500.874,1014.78h-24.756l-.554,2.216h25.863Z" transform="translate(-1475.564 -1012.288)" fill="#3a4796"/>
                <rect id="長方形_19" data-name="長方形 19" width="22.535" height="1.764" transform="translate(1.664)" fill="#3a4796"/>
                <path id="パス_223" data-name="パス 223" d="M1501.833,1011.328h-22.544l-1.107.728h24.759Z" transform="translate(-1477.63 -1009.565)" fill="#2e376a"/>
              </g>
              <g id="グループ_120" data-name="グループ 120" transform="translate(1.664 12.578)">
                <rect id="長方形_20" data-name="長方形 20" width="22.535" height="1.195" fill="#3a4796"/>
                <rect id="長方形_21" data-name="長方形 21" width="22.535" height="0.633" transform="translate(0 1.195)" fill="#2e376a"/>
              </g>
              <g id="グループ_122" data-name="グループ 122" transform="translate(6.111 5.924)">
                <path id="長方形_22" data-name="長方形 22" d="M6.821,0h0a6.821,6.821,0,0,1,6.821,6.821V25.514a0,0,0,0,1,0,0H0a0,0,0,0,1,0,0V6.821A6.821,6.821,0,0,1,6.821,0Z" fill="#3a4796"/>
                <g id="グループ_121" data-name="グループ 121">
                  <path id="長方形_23" data-name="長方形 23" d="M6.821,0h0a6.821,6.821,0,0,1,6.821,6.821V25.514a0,0,0,0,1,0,0H0a0,0,0,0,1,0,0V6.821A6.821,6.821,0,0,1,6.821,0Z" fill="none" stroke="#d4c040" stroke-miterlimit="10" stroke-width="1"/>
                  <line id="線_26" data-name="線 26" x2="13.641" transform="translate(0 13.738)" fill="none" stroke="#d4c040" stroke-miterlimit="10" stroke-width="1"/>
                  <line id="線_27" data-name="線 27" y1="25.514" transform="translate(6.821 0)" fill="none" stroke="#d4c040" stroke-miterlimit="10" stroke-width="1"/>
                </g>
              </g>
            </g>
            <g id="グループ_129" data-name="グループ 129" transform="translate(39.957)">
              <rect id="長方形_24" data-name="長方形 24" width="22.535" height="31.279" transform="translate(1.664 4.707)" fill="#c1e3e2"/>
              <g id="グループ_124" data-name="グループ 124">
                <path id="パス_224" data-name="パス 224" d="M1690.277,834.605h-24.756l-.554-2.216h25.863Z" transform="translate(-1664.968 -832.39)" fill="#3a4796"/>
                <rect id="長方形_25" data-name="長方形 25" width="22.535" height="1.764" transform="translate(1.664 2.944)" fill="#3a4796"/>
                <path id="パス_225" data-name="パス 225" d="M1691.237,843.62h-22.544l-1.107-.728h24.759Z" transform="translate(-1667.034 -840.676)" fill="#2e376a"/>
              </g>
              <g id="グループ_125" data-name="グループ 125" transform="translate(0 35.986)">
                <path id="パス_226" data-name="パス 226" d="M1690.277,1014.78h-24.756l-.554,2.216h25.863Z" transform="translate(-1664.968 -1012.288)" fill="#3a4796"/>
                <rect id="長方形_26" data-name="長方形 26" width="22.535" height="1.764" transform="translate(1.664)" fill="#3a4796"/>
                <path id="パス_227" data-name="パス 227" d="M1691.237,1011.328h-22.544l-1.107.728h24.759Z" transform="translate(-1667.034 -1009.565)" fill="#2e376a"/>
              </g>
              <g id="グループ_126" data-name="グループ 126" transform="translate(1.664 12.578)">
                <rect id="長方形_27" data-name="長方形 27" width="22.535" height="1.195" fill="#3a4796"/>
                <rect id="長方形_28" data-name="長方形 28" width="22.535" height="0.633" transform="translate(0 1.195)" fill="#2e376a"/>
              </g>
              <g id="グループ_128" data-name="グループ 128" transform="translate(6.111 5.924)">
                <path id="長方形_29" data-name="長方形 29" d="M6.821,0h0a6.821,6.821,0,0,1,6.821,6.821V25.514a0,0,0,0,1,0,0H0a0,0,0,0,1,0,0V6.821A6.821,6.821,0,0,1,6.821,0Z" fill="#3a4796"/>
                <g id="グループ_127" data-name="グループ 127">
                  <path id="長方形_30" data-name="長方形 30" d="M6.821,0h0a6.821,6.821,0,0,1,6.821,6.821V25.514a0,0,0,0,1,0,0H0a0,0,0,0,1,0,0V6.821A6.821,6.821,0,0,1,6.821,0Z" fill="none" stroke="#d4c040" stroke-miterlimit="10" stroke-width="1"/>
                  <line id="線_28" data-name="線 28" x2="13.641" transform="translate(0 13.738)" fill="none" stroke="#d4c040" stroke-miterlimit="10" stroke-width="1"/>
                  <line id="線_29" data-name="線 29" y1="25.514" transform="translate(6.821 0)" fill="none" stroke="#d4c040" stroke-miterlimit="10" stroke-width="1"/>
                </g>
              </g>
            </g>
            <g id="グループ_135" data-name="グループ 135" transform="translate(79.915)">
              <rect id="長方形_31" data-name="長方形 31" width="22.535" height="31.279" transform="translate(1.664 4.707)" fill="#c1e3e2"/>
              <g id="グループ_130" data-name="グループ 130">
                <path id="パス_228" data-name="パス 228" d="M1879.682,834.605h-24.756l-.554-2.216h25.863Z" transform="translate(-1854.372 -832.39)" fill="#3a4796"/>
                <rect id="長方形_32" data-name="長方形 32" width="22.535" height="1.764" transform="translate(1.664 2.944)" fill="#3a4796"/>
                <path id="パス_229" data-name="パス 229" d="M1880.641,843.62H1858.1l-1.107-.728h24.758Z" transform="translate(-1856.438 -840.676)" fill="#2e376a"/>
              </g>
              <g id="グループ_131" data-name="グループ 131" transform="translate(0 35.986)">
                <path id="パス_230" data-name="パス 230" d="M1879.682,1014.78h-24.756l-.554,2.216h25.863Z" transform="translate(-1854.372 -1012.288)" fill="#3a4796"/>
                <rect id="長方形_33" data-name="長方形 33" width="22.535" height="1.764" transform="translate(1.664)" fill="#3a4796"/>
                <path id="パス_231" data-name="パス 231" d="M1880.641,1011.328H1858.1l-1.107.728h24.758Z" transform="translate(-1856.438 -1009.565)" fill="#2e376a"/>
              </g>
              <g id="グループ_132" data-name="グループ 132" transform="translate(1.664 12.578)">
                <rect id="長方形_34" data-name="長方形 34" width="22.535" height="1.195" fill="#3a4796"/>
                <rect id="長方形_35" data-name="長方形 35" width="22.535" height="0.633" transform="translate(0 1.195)" fill="#2e376a"/>
              </g>
              <g id="グループ_134" data-name="グループ 134" transform="translate(6.111 5.924)">
                <path id="長方形_36" data-name="長方形 36" d="M6.821,0h0a6.821,6.821,0,0,1,6.821,6.821V25.514a0,0,0,0,1,0,0H0a0,0,0,0,1,0,0V6.821A6.821,6.821,0,0,1,6.821,0Z" fill="#3a4796"/>
                <g id="グループ_133" data-name="グループ 133">
                  <path id="長方形_37" data-name="長方形 37" d="M6.821,0h0a6.821,6.821,0,0,1,6.821,6.821V25.514a0,0,0,0,1,0,0H0a0,0,0,0,1,0,0V6.821A6.821,6.821,0,0,1,6.821,0Z" fill="none" stroke="#d4c040" stroke-miterlimit="10" stroke-width="1"/>
                  <line id="線_30" data-name="線 30" x2="13.641" transform="translate(0 13.738)" fill="none" stroke="#d4c040" stroke-miterlimit="10" stroke-width="1"/>
                  <line id="線_31" data-name="線 31" y1="25.514" transform="translate(6.821 0)" fill="none" stroke="#d4c040" stroke-miterlimit="10" stroke-width="1"/>
                </g>
              </g>
            </g>
            <g id="グループ_141" data-name="グループ 141" transform="translate(119.872)">
              <rect id="長方形_38" data-name="長方形 38" width="22.535" height="31.279" transform="translate(1.664 4.707)" fill="#c1e3e2"/>
              <g id="グループ_136" data-name="グループ 136">
                <path id="パス_232" data-name="パス 232" d="M2069.085,834.605h-24.756l-.554-2.216h25.863Z" transform="translate(-2043.776 -832.39)" fill="#3a4796"/>
                <rect id="長方形_39" data-name="長方形 39" width="22.535" height="1.764" transform="translate(1.664 2.944)" fill="#3a4796"/>
                <path id="パス_233" data-name="パス 233" d="M2070.045,843.62H2047.5l-1.107-.728h24.759Z" transform="translate(-2045.842 -840.676)" fill="#2e376a"/>
              </g>
              <g id="グループ_137" data-name="グループ 137" transform="translate(0 35.986)">
                <path id="パス_234" data-name="パス 234" d="M2069.085,1014.78h-24.756l-.554,2.216h25.863Z" transform="translate(-2043.776 -1012.288)" fill="#3a4796"/>
                <rect id="長方形_40" data-name="長方形 40" width="22.535" height="1.764" transform="translate(1.664)" fill="#3a4796"/>
                <path id="パス_235" data-name="パス 235" d="M2070.045,1011.328H2047.5l-1.107.728h24.759Z" transform="translate(-2045.842 -1009.565)" fill="#2e376a"/>
              </g>
              <g id="グループ_138" data-name="グループ 138" transform="translate(1.664 12.578)">
                <rect id="長方形_41" data-name="長方形 41" width="22.535" height="1.195" fill="#3a4796"/>
                <rect id="長方形_42" data-name="長方形 42" width="22.535" height="0.633" transform="translate(0 1.195)" fill="#2e376a"/>
              </g>
              <g id="グループ_140" data-name="グループ 140" transform="translate(6.111 5.924)">
                <path id="長方形_43" data-name="長方形 43" d="M6.821,0h0a6.821,6.821,0,0,1,6.821,6.821V25.514a0,0,0,0,1,0,0H0a0,0,0,0,1,0,0V6.821A6.821,6.821,0,0,1,6.821,0Z" fill="#3a4796"/>
                <g id="グループ_139" data-name="グループ 139">
                  <path id="長方形_44" data-name="長方形 44" d="M6.821,0h0a6.821,6.821,0,0,1,6.821,6.821V25.514a0,0,0,0,1,0,0H0a0,0,0,0,1,0,0V6.821A6.821,6.821,0,0,1,6.821,0Z" fill="none" stroke="#d4c040" stroke-miterlimit="10" stroke-width="1"/>
                  <line id="線_32" data-name="線 32" x2="13.641" transform="translate(0 13.738)" fill="none" stroke="#d4c040" stroke-miterlimit="10" stroke-width="1"/>
                  <line id="線_33" data-name="線 33" y1="25.514" transform="translate(6.821 0)" fill="none" stroke="#d4c040" stroke-miterlimit="10" stroke-width="1"/>
                </g>
              </g>
            </g>
            <g id="グループ_147" data-name="グループ 147" transform="translate(159.83)">
              <rect id="長方形_45" data-name="長方形 45" width="22.535" height="31.279" transform="translate(1.664 4.707)" fill="#c1e3e2"/>
              <g id="グループ_142" data-name="グループ 142">
                <path id="パス_236" data-name="パス 236" d="M2258.489,834.605h-24.756l-.554-2.216h25.863Z" transform="translate(-2233.18 -832.39)" fill="#3a4796"/>
                <rect id="長方形_46" data-name="長方形 46" width="22.535" height="1.764" transform="translate(1.664 2.944)" fill="#3a4796"/>
                <path id="パス_237" data-name="パス 237" d="M2259.449,843.62h-22.544l-1.107-.728h24.758Z" transform="translate(-2235.246 -840.676)" fill="#2e376a"/>
              </g>
              <g id="グループ_143" data-name="グループ 143" transform="translate(0 35.986)">
                <path id="パス_238" data-name="パス 238" d="M2258.489,1014.78h-24.756l-.554,2.216h25.863Z" transform="translate(-2233.18 -1012.288)" fill="#3a4796"/>
                <rect id="長方形_47" data-name="長方形 47" width="22.535" height="1.764" transform="translate(1.664)" fill="#3a4796"/>
                <path id="パス_239" data-name="パス 239" d="M2259.449,1011.328h-22.544l-1.107.728h24.758Z" transform="translate(-2235.246 -1009.565)" fill="#2e376a"/>
              </g>
              <g id="グループ_144" data-name="グループ 144" transform="translate(1.664 12.578)">
                <rect id="長方形_48" data-name="長方形 48" width="22.535" height="1.195" fill="#3a4796"/>
                <rect id="長方形_49" data-name="長方形 49" width="22.535" height="0.633" transform="translate(0 1.195)" fill="#2e376a"/>
              </g>
              <g id="グループ_146" data-name="グループ 146" transform="translate(6.111 5.924)">
                <path id="長方形_50" data-name="長方形 50" d="M6.821,0h0a6.821,6.821,0,0,1,6.821,6.821V25.514a0,0,0,0,1,0,0H0a0,0,0,0,1,0,0V6.821A6.821,6.821,0,0,1,6.821,0Z" fill="#3a4796"/>
                <g id="グループ_145" data-name="グループ 145">
                  <path id="長方形_51" data-name="長方形 51" d="M6.821,0h0a6.821,6.821,0,0,1,6.821,6.821V25.514a0,0,0,0,1,0,0H0a0,0,0,0,1,0,0V6.821A6.821,6.821,0,0,1,6.821,0Z" fill="none" stroke="#d4c040" stroke-miterlimit="10" stroke-width="1"/>
                  <line id="線_34" data-name="線 34" x2="13.641" transform="translate(0 13.738)" fill="none" stroke="#d4c040" stroke-miterlimit="10" stroke-width="1"/>
                  <line id="線_35" data-name="線 35" y1="25.514" transform="translate(6.821 0)" fill="none" stroke="#d4c040" stroke-miterlimit="10" stroke-width="1"/>
                </g>
              </g>
            </g>
          </g>
        </g>
        <g id="グループ_181" data-name="グループ 181" transform="translate(0 55.314)">
          <rect id="長方形_52" data-name="長方形 52" width="216.697" height="2.944" fill="#c1e3e2"/>
          <rect id="長方形_53" data-name="長方形 53" width="216.697" height="2.944" transform="translate(0 37.75)" fill="#c1e3e2"/>
          <g id="グループ_180" data-name="グループ 180" transform="translate(13.622)">
            <g id="グループ_155" data-name="グループ 155">
              <rect id="長方形_54" data-name="長方形 54" width="22.535" height="31.279" transform="translate(1.664 4.707)" fill="#c1e3e2"/>
              <g id="グループ_150" data-name="グループ 150">
                <path id="パス_240" data-name="パス 240" d="M1500.874,1096.8h-24.756l-.554-2.216h25.863Z" transform="translate(-1475.564 -1094.586)" fill="#3a4796"/>
                <rect id="長方形_55" data-name="長方形 55" width="22.535" height="1.764" transform="translate(1.664 2.944)" fill="#3a4796"/>
                <path id="パス_241" data-name="パス 241" d="M1501.833,1105.816h-22.544l-1.107-.728h24.759Z" transform="translate(-1477.63 -1102.872)" fill="#2e376a"/>
              </g>
              <g id="グループ_151" data-name="グループ 151" transform="translate(0 35.986)">
                <path id="パス_242" data-name="パス 242" d="M1500.874,1276.975h-24.756l-.554,2.216h25.863Z" transform="translate(-1475.564 -1274.484)" fill="#3a4796"/>
                <rect id="長方形_56" data-name="長方形 56" width="22.535" height="1.764" transform="translate(1.664)" fill="#3a4796"/>
                <path id="パス_243" data-name="パス 243" d="M1501.833,1273.524h-22.544l-1.107.728h24.759Z" transform="translate(-1477.63 -1271.761)" fill="#2e376a"/>
              </g>
              <g id="グループ_152" data-name="グループ 152" transform="translate(1.664 12.578)">
                <rect id="長方形_57" data-name="長方形 57" width="22.535" height="1.195" fill="#3a4796"/>
                <rect id="長方形_58" data-name="長方形 58" width="22.535" height="0.633" transform="translate(0 1.195)" fill="#2e376a"/>
              </g>
              <g id="グループ_154" data-name="グループ 154" transform="translate(6.111 5.924)">
                <path id="長方形_59" data-name="長方形 59" d="M6.821,0h0a6.821,6.821,0,0,1,6.821,6.821V25.514a0,0,0,0,1,0,0H0a0,0,0,0,1,0,0V6.821A6.821,6.821,0,0,1,6.821,0Z" fill="#3a4796"/>
                <g id="グループ_153" data-name="グループ 153">
                  <path id="長方形_60" data-name="長方形 60" d="M6.821,0h0a6.821,6.821,0,0,1,6.821,6.821V25.514a0,0,0,0,1,0,0H0a0,0,0,0,1,0,0V6.821A6.821,6.821,0,0,1,6.821,0Z" fill="none" stroke="#d4c040" stroke-miterlimit="10" stroke-width="1"/>
                  <line id="線_36" data-name="線 36" x2="13.641" transform="translate(0 13.738)" fill="none" stroke="#d4c040" stroke-miterlimit="10" stroke-width="1"/>
                  <line id="線_37" data-name="線 37" y1="25.514" transform="translate(6.821 0)" fill="none" stroke="#d4c040" stroke-miterlimit="10" stroke-width="1"/>
                </g>
              </g>
            </g>
            <g id="グループ_161" data-name="グループ 161" transform="translate(39.957)">
              <rect id="長方形_61" data-name="長方形 61" width="22.535" height="31.279" transform="translate(1.664 4.707)" fill="#c1e3e2"/>
              <g id="グループ_156" data-name="グループ 156">
                <path id="パス_244" data-name="パス 244" d="M1690.277,1096.8h-24.756l-.554-2.216h25.863Z" transform="translate(-1664.968 -1094.586)" fill="#3a4796"/>
                <rect id="長方形_62" data-name="長方形 62" width="22.535" height="1.764" transform="translate(1.664 2.944)" fill="#3a4796"/>
                <path id="パス_245" data-name="パス 245" d="M1691.237,1105.816h-22.544l-1.107-.728h24.759Z" transform="translate(-1667.034 -1102.872)" fill="#2e376a"/>
              </g>
              <g id="グループ_157" data-name="グループ 157" transform="translate(0 35.986)">
                <path id="パス_246" data-name="パス 246" d="M1690.277,1276.975h-24.756l-.554,2.216h25.863Z" transform="translate(-1664.968 -1274.484)" fill="#3a4796"/>
                <rect id="長方形_63" data-name="長方形 63" width="22.535" height="1.764" transform="translate(1.664)" fill="#3a4796"/>
                <path id="パス_247" data-name="パス 247" d="M1691.237,1273.524h-22.544l-1.107.728h24.759Z" transform="translate(-1667.034 -1271.761)" fill="#2e376a"/>
              </g>
              <g id="グループ_158" data-name="グループ 158" transform="translate(1.664 12.578)">
                <rect id="長方形_64" data-name="長方形 64" width="22.535" height="1.195" fill="#3a4796"/>
                <rect id="長方形_65" data-name="長方形 65" width="22.535" height="0.633" transform="translate(0 1.195)" fill="#2e376a"/>
              </g>
              <g id="グループ_160" data-name="グループ 160" transform="translate(6.111 5.924)">
                <path id="長方形_66" data-name="長方形 66" d="M6.821,0h0a6.821,6.821,0,0,1,6.821,6.821V25.514a0,0,0,0,1,0,0H0a0,0,0,0,1,0,0V6.821A6.821,6.821,0,0,1,6.821,0Z" fill="#3a4796"/>
                <g id="グループ_159" data-name="グループ 159">
                  <path id="長方形_67" data-name="長方形 67" d="M6.821,0h0a6.821,6.821,0,0,1,6.821,6.821V25.514a0,0,0,0,1,0,0H0a0,0,0,0,1,0,0V6.821A6.821,6.821,0,0,1,6.821,0Z" fill="none" stroke="#d4c040" stroke-miterlimit="10" stroke-width="1"/>
                  <line id="線_38" data-name="線 38" x2="13.641" transform="translate(0 13.738)" fill="none" stroke="#d4c040" stroke-miterlimit="10" stroke-width="1"/>
                  <line id="線_39" data-name="線 39" y1="25.514" transform="translate(6.821 0)" fill="none" stroke="#d4c040" stroke-miterlimit="10" stroke-width="1"/>
                </g>
              </g>
            </g>
            <g id="グループ_167" data-name="グループ 167" transform="translate(79.915)">
              <rect id="長方形_68" data-name="長方形 68" width="22.535" height="31.279" transform="translate(1.664 4.707)" fill="#c1e3e2"/>
              <g id="グループ_162" data-name="グループ 162">
                <path id="パス_248" data-name="パス 248" d="M1879.682,1096.8h-24.756l-.554-2.216h25.863Z" transform="translate(-1854.372 -1094.586)" fill="#3a4796"/>
                <rect id="長方形_69" data-name="長方形 69" width="22.535" height="1.764" transform="translate(1.664 2.944)" fill="#3a4796"/>
                <path id="パス_249" data-name="パス 249" d="M1880.641,1105.816H1858.1l-1.107-.728h24.758Z" transform="translate(-1856.438 -1102.872)" fill="#2e376a"/>
              </g>
              <g id="グループ_163" data-name="グループ 163" transform="translate(0 35.986)">
                <path id="パス_250" data-name="パス 250" d="M1879.682,1276.975h-24.756l-.554,2.216h25.863Z" transform="translate(-1854.372 -1274.484)" fill="#3a4796"/>
                <rect id="長方形_70" data-name="長方形 70" width="22.535" height="1.764" transform="translate(1.664)" fill="#3a4796"/>
                <path id="パス_251" data-name="パス 251" d="M1880.641,1273.524H1858.1l-1.107.728h24.758Z" transform="translate(-1856.438 -1271.761)" fill="#2e376a"/>
              </g>
              <g id="グループ_164" data-name="グループ 164" transform="translate(1.664 12.578)">
                <rect id="長方形_71" data-name="長方形 71" width="22.535" height="1.195" fill="#3a4796"/>
                <rect id="長方形_72" data-name="長方形 72" width="22.535" height="0.633" transform="translate(0 1.195)" fill="#2e376a"/>
              </g>
              <g id="グループ_166" data-name="グループ 166" transform="translate(6.111 5.924)">
                <path id="長方形_73" data-name="長方形 73" d="M6.821,0h0a6.821,6.821,0,0,1,6.821,6.821V25.514a0,0,0,0,1,0,0H0a0,0,0,0,1,0,0V6.821A6.821,6.821,0,0,1,6.821,0Z" fill="#3a4796"/>
                <g id="グループ_165" data-name="グループ 165">
                  <path id="長方形_74" data-name="長方形 74" d="M6.821,0h0a6.821,6.821,0,0,1,6.821,6.821V25.514a0,0,0,0,1,0,0H0a0,0,0,0,1,0,0V6.821A6.821,6.821,0,0,1,6.821,0Z" fill="none" stroke="#d4c040" stroke-miterlimit="10" stroke-width="1"/>
                  <line id="線_40" data-name="線 40" x2="13.641" transform="translate(0 13.738)" fill="none" stroke="#d4c040" stroke-miterlimit="10" stroke-width="1"/>
                  <line id="線_41" data-name="線 41" y1="25.514" transform="translate(6.821 0)" fill="none" stroke="#d4c040" stroke-miterlimit="10" stroke-width="1"/>
                </g>
              </g>
            </g>
            <g id="グループ_173" data-name="グループ 173" transform="translate(119.872)">
              <rect id="長方形_75" data-name="長方形 75" width="22.535" height="31.279" transform="translate(1.664 4.707)" fill="#c1e3e2"/>
              <g id="グループ_168" data-name="グループ 168">
                <path id="パス_252" data-name="パス 252" d="M2069.085,1096.8h-24.756l-.554-2.216h25.863Z" transform="translate(-2043.776 -1094.586)" fill="#3a4796"/>
                <rect id="長方形_76" data-name="長方形 76" width="22.535" height="1.764" transform="translate(1.664 2.944)" fill="#3a4796"/>
                <path id="パス_253" data-name="パス 253" d="M2070.045,1105.816H2047.5l-1.107-.728h24.759Z" transform="translate(-2045.842 -1102.872)" fill="#2e376a"/>
              </g>
              <g id="グループ_169" data-name="グループ 169" transform="translate(0 35.986)">
                <path id="パス_254" data-name="パス 254" d="M2069.085,1276.975h-24.756l-.554,2.216h25.863Z" transform="translate(-2043.776 -1274.484)" fill="#3a4796"/>
                <rect id="長方形_77" data-name="長方形 77" width="22.535" height="1.764" transform="translate(1.664)" fill="#3a4796"/>
                <path id="パス_255" data-name="パス 255" d="M2070.045,1273.524H2047.5l-1.107.728h24.759Z" transform="translate(-2045.842 -1271.761)" fill="#2e376a"/>
              </g>
              <g id="グループ_170" data-name="グループ 170" transform="translate(1.664 12.578)">
                <rect id="長方形_78" data-name="長方形 78" width="22.535" height="1.195" fill="#3a4796"/>
                <rect id="長方形_79" data-name="長方形 79" width="22.535" height="0.633" transform="translate(0 1.195)" fill="#2e376a"/>
              </g>
              <g id="グループ_172" data-name="グループ 172" transform="translate(6.111 5.924)">
                <path id="長方形_80" data-name="長方形 80" d="M6.821,0h0a6.821,6.821,0,0,1,6.821,6.821V25.514a0,0,0,0,1,0,0H0a0,0,0,0,1,0,0V6.821A6.821,6.821,0,0,1,6.821,0Z" fill="#3a4796"/>
                <g id="グループ_171" data-name="グループ 171">
                  <path id="長方形_81" data-name="長方形 81" d="M6.821,0h0a6.821,6.821,0,0,1,6.821,6.821V25.514a0,0,0,0,1,0,0H0a0,0,0,0,1,0,0V6.821A6.821,6.821,0,0,1,6.821,0Z" fill="none" stroke="#d4c040" stroke-miterlimit="10" stroke-width="1"/>
                  <line id="線_42" data-name="線 42" x2="13.641" transform="translate(0 13.738)" fill="none" stroke="#d4c040" stroke-miterlimit="10" stroke-width="1"/>
                  <line id="線_43" data-name="線 43" y1="25.514" transform="translate(6.821 0)" fill="none" stroke="#d4c040" stroke-miterlimit="10" stroke-width="1"/>
                </g>
              </g>
            </g>
            <g id="グループ_179" data-name="グループ 179" transform="translate(159.83)">
              <rect id="長方形_82" data-name="長方形 82" width="22.535" height="31.279" transform="translate(1.664 4.707)" fill="#c1e3e2"/>
              <g id="グループ_174" data-name="グループ 174">
                <path id="パス_256" data-name="パス 256" d="M2258.489,1096.8h-24.756l-.554-2.216h25.863Z" transform="translate(-2233.18 -1094.586)" fill="#3a4796"/>
                <rect id="長方形_83" data-name="長方形 83" width="22.535" height="1.764" transform="translate(1.664 2.944)" fill="#3a4796"/>
                <path id="パス_257" data-name="パス 257" d="M2259.449,1105.816h-22.544l-1.107-.728h24.758Z" transform="translate(-2235.246 -1102.872)" fill="#2e376a"/>
              </g>
              <g id="グループ_175" data-name="グループ 175" transform="translate(0 35.986)">
                <path id="パス_258" data-name="パス 258" d="M2258.489,1276.975h-24.756l-.554,2.216h25.863Z" transform="translate(-2233.18 -1274.484)" fill="#3a4796"/>
                <rect id="長方形_84" data-name="長方形 84" width="22.535" height="1.764" transform="translate(1.664)" fill="#3a4796"/>
                <path id="パス_259" data-name="パス 259" d="M2259.449,1273.524h-22.544l-1.107.728h24.758Z" transform="translate(-2235.246 -1271.761)" fill="#2e376a"/>
              </g>
              <g id="グループ_176" data-name="グループ 176" transform="translate(1.664 12.578)">
                <rect id="長方形_85" data-name="長方形 85" width="22.535" height="1.195" fill="#3a4796"/>
                <rect id="長方形_86" data-name="長方形 86" width="22.535" height="0.633" transform="translate(0 1.195)" fill="#2e376a"/>
              </g>
              <g id="グループ_178" data-name="グループ 178" transform="translate(6.111 5.924)">
                <path id="長方形_87" data-name="長方形 87" d="M6.821,0h0a6.821,6.821,0,0,1,6.821,6.821V25.514a0,0,0,0,1,0,0H0a0,0,0,0,1,0,0V6.821A6.821,6.821,0,0,1,6.821,0Z" fill="#3a4796"/>
                <g id="グループ_177" data-name="グループ 177">
                  <path id="長方形_88" data-name="長方形 88" d="M6.821,0h0a6.821,6.821,0,0,1,6.821,6.821V25.514a0,0,0,0,1,0,0H0a0,0,0,0,1,0,0V6.821A6.821,6.821,0,0,1,6.821,0Z" fill="none" stroke="#d4c040" stroke-miterlimit="10" stroke-width="1"/>
                  <line id="線_44" data-name="線 44" x2="13.641" transform="translate(0 13.738)" fill="none" stroke="#d4c040" stroke-miterlimit="10" stroke-width="1"/>
                  <line id="線_45" data-name="線 45" y1="25.514" transform="translate(6.821 0)" fill="none" stroke="#d4c040" stroke-miterlimit="10" stroke-width="1"/>
                </g>
              </g>
            </g>
          </g>
        </g>
        <g id="グループ_207" data-name="グループ 207" transform="translate(0 110.628)">
          <rect id="長方形_89" data-name="長方形 89" width="216.697" height="2.944" fill="#c1e3e2"/>
          <rect id="長方形_90" data-name="長方形 90" width="216.697" height="2.944" transform="translate(0 37.75)" fill="#c1e3e2"/>
          <g id="グループ_206" data-name="グループ 206" transform="translate(13.622)">
            <g id="グループ_187" data-name="グループ 187">
              <rect id="長方形_91" data-name="長方形 91" width="22.535" height="31.279" transform="translate(1.664 4.707)" fill="#c1e3e2"/>
              <g id="グループ_182" data-name="グループ 182">
                <path id="パス_260" data-name="パス 260" d="M1500.874,1359h-24.756l-.554-2.216h25.863Z" transform="translate(-1475.564 -1356.781)" fill="#3a4796"/>
                <rect id="長方形_92" data-name="長方形 92" width="22.535" height="1.764" transform="translate(1.664 2.944)" fill="#3a4796"/>
                <path id="パス_261" data-name="パス 261" d="M1501.833,1368.011h-22.544l-1.107-.728h24.759Z" transform="translate(-1477.63 -1365.068)" fill="#2e376a"/>
              </g>
              <g id="グループ_183" data-name="グループ 183" transform="translate(0 35.986)">
                <path id="パス_262" data-name="パス 262" d="M1500.874,1539.171h-24.756l-.554,2.216h25.863Z" transform="translate(-1475.564 -1536.68)" fill="#3a4796"/>
                <rect id="長方形_93" data-name="長方形 93" width="22.535" height="1.764" transform="translate(1.664)" fill="#3a4796"/>
                <path id="パス_263" data-name="パス 263" d="M1501.833,1535.72h-22.544l-1.107.728h24.759Z" transform="translate(-1477.63 -1533.956)" fill="#2e376a"/>
              </g>
              <g id="グループ_184" data-name="グループ 184" transform="translate(1.664 12.578)">
                <rect id="長方形_94" data-name="長方形 94" width="22.535" height="1.195" fill="#3a4796"/>
                <rect id="長方形_95" data-name="長方形 95" width="22.535" height="0.633" transform="translate(0 1.195)" fill="#2e376a"/>
              </g>
              <g id="グループ_186" data-name="グループ 186" transform="translate(6.111 5.924)">
                <path id="長方形_96" data-name="長方形 96" d="M6.821,0h0a6.821,6.821,0,0,1,6.821,6.821V25.514a0,0,0,0,1,0,0H0a0,0,0,0,1,0,0V6.821A6.821,6.821,0,0,1,6.821,0Z" fill="#3a4796"/>
                <g id="グループ_185" data-name="グループ 185">
                  <path id="長方形_97" data-name="長方形 97" d="M6.821,0h0a6.821,6.821,0,0,1,6.821,6.821V25.514a0,0,0,0,1,0,0H0a0,0,0,0,1,0,0V6.821A6.821,6.821,0,0,1,6.821,0Z" fill="none" stroke="#d4c040" stroke-miterlimit="10" stroke-width="1"/>
                  <line id="線_46" data-name="線 46" x2="13.641" transform="translate(0 13.738)" fill="none" stroke="#d4c040" stroke-miterlimit="10" stroke-width="1"/>
                  <line id="線_47" data-name="線 47" y1="25.514" transform="translate(6.821 0)" fill="none" stroke="#d4c040" stroke-miterlimit="10" stroke-width="1"/>
                </g>
              </g>
            </g>
            <g id="グループ_193" data-name="グループ 193" transform="translate(39.957)">
              <rect id="長方形_98" data-name="長方形 98" width="22.535" height="31.279" transform="translate(1.664 4.707)" fill="#c1e3e2"/>
              <g id="グループ_188" data-name="グループ 188">
                <path id="パス_264" data-name="パス 264" d="M1690.277,1359h-24.756l-.554-2.216h25.863Z" transform="translate(-1664.968 -1356.781)" fill="#3a4796"/>
                <rect id="長方形_99" data-name="長方形 99" width="22.535" height="1.764" transform="translate(1.664 2.944)" fill="#3a4796"/>
                <path id="パス_265" data-name="パス 265" d="M1691.237,1368.011h-22.544l-1.107-.728h24.759Z" transform="translate(-1667.034 -1365.068)" fill="#2e376a"/>
              </g>
              <g id="グループ_189" data-name="グループ 189" transform="translate(0 35.986)">
                <path id="パス_266" data-name="パス 266" d="M1690.277,1539.171h-24.756l-.554,2.216h25.863Z" transform="translate(-1664.968 -1536.68)" fill="#3a4796"/>
                <rect id="長方形_100" data-name="長方形 100" width="22.535" height="1.764" transform="translate(1.664)" fill="#3a4796"/>
                <path id="パス_267" data-name="パス 267" d="M1691.237,1535.72h-22.544l-1.107.728h24.759Z" transform="translate(-1667.034 -1533.956)" fill="#2e376a"/>
              </g>
              <g id="グループ_190" data-name="グループ 190" transform="translate(1.664 12.578)">
                <rect id="長方形_101" data-name="長方形 101" width="22.535" height="1.195" fill="#3a4796"/>
                <rect id="長方形_102" data-name="長方形 102" width="22.535" height="0.633" transform="translate(0 1.195)" fill="#2e376a"/>
              </g>
              <g id="グループ_192" data-name="グループ 192" transform="translate(6.111 5.924)">
                <path id="長方形_103" data-name="長方形 103" d="M6.821,0h0a6.821,6.821,0,0,1,6.821,6.821V25.514a0,0,0,0,1,0,0H0a0,0,0,0,1,0,0V6.821A6.821,6.821,0,0,1,6.821,0Z" fill="#3a4796"/>
                <g id="グループ_191" data-name="グループ 191">
                  <path id="長方形_104" data-name="長方形 104" d="M6.821,0h0a6.821,6.821,0,0,1,6.821,6.821V25.514a0,0,0,0,1,0,0H0a0,0,0,0,1,0,0V6.821A6.821,6.821,0,0,1,6.821,0Z" fill="none" stroke="#d4c040" stroke-miterlimit="10" stroke-width="1"/>
                  <line id="線_48" data-name="線 48" x2="13.641" transform="translate(0 13.738)" fill="none" stroke="#d4c040" stroke-miterlimit="10" stroke-width="1"/>
                  <line id="線_49" data-name="線 49" y1="25.514" transform="translate(6.821 0)" fill="none" stroke="#d4c040" stroke-miterlimit="10" stroke-width="1"/>
                </g>
              </g>
            </g>
            <g id="グループ_199" data-name="グループ 199" transform="translate(119.872)">
              <rect id="長方形_105" data-name="長方形 105" width="22.535" height="31.279" transform="translate(1.664 4.707)" fill="#c1e3e2"/>
              <g id="グループ_194" data-name="グループ 194">
                <path id="パス_268" data-name="パス 268" d="M2069.085,1359h-24.756l-.554-2.216h25.863Z" transform="translate(-2043.776 -1356.781)" fill="#3a4796"/>
                <rect id="長方形_106" data-name="長方形 106" width="22.535" height="1.764" transform="translate(1.664 2.944)" fill="#3a4796"/>
                <path id="パス_269" data-name="パス 269" d="M2070.045,1368.011H2047.5l-1.107-.728h24.759Z" transform="translate(-2045.842 -1365.068)" fill="#2e376a"/>
              </g>
              <g id="グループ_195" data-name="グループ 195" transform="translate(0 35.986)">
                <path id="パス_270" data-name="パス 270" d="M2069.085,1539.171h-24.756l-.554,2.216h25.863Z" transform="translate(-2043.776 -1536.68)" fill="#3a4796"/>
                <rect id="長方形_107" data-name="長方形 107" width="22.535" height="1.764" transform="translate(1.664)" fill="#3a4796"/>
                <path id="パス_271" data-name="パス 271" d="M2070.045,1535.72H2047.5l-1.107.728h24.759Z" transform="translate(-2045.842 -1533.956)" fill="#2e376a"/>
              </g>
              <g id="グループ_196" data-name="グループ 196" transform="translate(1.664 12.578)">
                <rect id="長方形_108" data-name="長方形 108" width="22.535" height="1.195" fill="#3a4796"/>
                <rect id="長方形_109" data-name="長方形 109" width="22.535" height="0.633" transform="translate(0 1.195)" fill="#2e376a"/>
              </g>
              <g id="グループ_198" data-name="グループ 198" transform="translate(6.111 5.924)">
                <path id="長方形_110" data-name="長方形 110" d="M6.821,0h0a6.821,6.821,0,0,1,6.821,6.821V25.514a0,0,0,0,1,0,0H0a0,0,0,0,1,0,0V6.821A6.821,6.821,0,0,1,6.821,0Z" fill="#3a4796"/>
                <g id="グループ_197" data-name="グループ 197">
                  <path id="長方形_111" data-name="長方形 111" d="M6.821,0h0a6.821,6.821,0,0,1,6.821,6.821V25.514a0,0,0,0,1,0,0H0a0,0,0,0,1,0,0V6.821A6.821,6.821,0,0,1,6.821,0Z" fill="none" stroke="#d4c040" stroke-miterlimit="10" stroke-width="1"/>
                  <line id="線_50" data-name="線 50" x2="13.641" transform="translate(0 13.738)" fill="none" stroke="#d4c040" stroke-miterlimit="10" stroke-width="1"/>
                  <line id="線_51" data-name="線 51" y1="25.514" transform="translate(6.821 0)" fill="none" stroke="#d4c040" stroke-miterlimit="10" stroke-width="1"/>
                </g>
              </g>
            </g>
            <g id="グループ_205" data-name="グループ 205" transform="translate(159.83)">
              <rect id="長方形_112" data-name="長方形 112" width="22.535" height="31.279" transform="translate(1.664 4.707)" fill="#c1e3e2"/>
              <g id="グループ_200" data-name="グループ 200">
                <path id="パス_272" data-name="パス 272" d="M2258.489,1359h-24.756l-.554-2.216h25.863Z" transform="translate(-2233.18 -1356.781)" fill="#3a4796"/>
                <rect id="長方形_113" data-name="長方形 113" width="22.535" height="1.764" transform="translate(1.664 2.944)" fill="#3a4796"/>
                <path id="パス_273" data-name="パス 273" d="M2259.449,1368.011h-22.544l-1.107-.728h24.758Z" transform="translate(-2235.246 -1365.068)" fill="#2e376a"/>
              </g>
              <g id="グループ_201" data-name="グループ 201" transform="translate(0 35.986)">
                <path id="パス_274" data-name="パス 274" d="M2258.489,1539.171h-24.756l-.554,2.216h25.863Z" transform="translate(-2233.18 -1536.68)" fill="#3a4796"/>
                <rect id="長方形_114" data-name="長方形 114" width="22.535" height="1.764" transform="translate(1.664)" fill="#3a4796"/>
                <path id="パス_275" data-name="パス 275" d="M2259.449,1535.72h-22.544l-1.107.728h24.758Z" transform="translate(-2235.246 -1533.956)" fill="#2e376a"/>
              </g>
              <g id="グループ_202" data-name="グループ 202" transform="translate(1.664 12.578)">
                <rect id="長方形_115" data-name="長方形 115" width="22.535" height="1.195" fill="#3a4796"/>
                <rect id="長方形_116" data-name="長方形 116" width="22.535" height="0.633" transform="translate(0 1.195)" fill="#2e376a"/>
              </g>
              <g id="グループ_204" data-name="グループ 204" transform="translate(6.111 5.924)">
                <path id="長方形_117" data-name="長方形 117" d="M6.821,0h0a6.821,6.821,0,0,1,6.821,6.821V25.514a0,0,0,0,1,0,0H0a0,0,0,0,1,0,0V6.821A6.821,6.821,0,0,1,6.821,0Z" fill="#3a4796"/>
                <g id="グループ_203" data-name="グループ 203">
                  <path id="長方形_118" data-name="長方形 118" d="M6.821,0h0a6.821,6.821,0,0,1,6.821,6.821V25.514a0,0,0,0,1,0,0H0a0,0,0,0,1,0,0V6.821A6.821,6.821,0,0,1,6.821,0Z" fill="none" stroke="#d4c040" stroke-miterlimit="10" stroke-width="1"/>
                  <line id="線_52" data-name="線 52" x2="13.641" transform="translate(0 13.738)" fill="none" stroke="#d4c040" stroke-miterlimit="10" stroke-width="1"/>
                  <line id="線_53" data-name="線 53" y1="25.514" transform="translate(6.821 0)" fill="none" stroke="#d4c040" stroke-miterlimit="10" stroke-width="1"/>
                </g>
              </g>
            </g>
          </g>
        </g>
      </g>
      <g id="グループ_210" data-name="グループ 210" transform="translate(62.299 60.884)">
        <g id="グループ_209" data-name="グループ 209">
          <path id="パス_276" data-name="パス 276" d="M1498.416,647.525h-.063l-7.439-7.35-7.243,7.157-7.242-7.157-7.243,7.157-7.243-7.157-7.243,7.157-7.243-7.157-7.243,7.157-7.243-7.157-7.243,7.157-7.243-7.157-7.439,7.35h-.063l.031.031-.031.031h.063l7.439,7.35,7.243-7.157,7.243,7.157,7.243-7.157,7.243,7.157,7.243-7.157,7.243,7.157,7.243-7.157,7.243,7.157,7.242-7.157,7.243,7.157,7.439-7.35h.063l-.031-.031Z" transform="translate(-1410.985 -640.175)" fill="#c1e3e2"/>
          <path id="パス_277" data-name="パス 277" d="M2111.172,647.525h-.063l-7.439-7.35-7.243,7.157-7.242-7.157-7.243,7.157-7.243-7.157-7.243,7.157-7.243-7.157-7.242,7.157-7.243-7.157-7.243,7.157-7.243-7.157-7.439,7.35h-.063l.031.031-.031.031h.063l7.439,7.35,7.243-7.157,7.243,7.157,7.243-7.157,7.242,7.157,7.243-7.157,7.243,7.157,7.243-7.157,7.243,7.157,7.242-7.157,7.243,7.157,7.439-7.35h.063l-.031-.031Z" transform="translate(-1894.471 -640.175)" fill="#c1e3e2"/>
        </g>
        <path id="パス_278" data-name="パス 278" d="M1498.416,720.415h-.063l-7.439-7.35-7.243,7.157-7.242-7.157-7.243,7.157-7.243-7.157-7.243,7.157-7.243-7.157-7.243,7.157-7.243-7.157-7.243,7.157-7.243-7.157-7.439,7.35h-.063l.031.031-.031.031h.063l7.439,7.35,7.243-7.157,7.243,7.157,7.243-7.157,7.243,7.157,7.243-7.157,7.243,7.157,7.243-7.157,7.243,7.157,7.242-7.157,7.243,7.157,7.439-7.35h.063l-.031-.031Z" transform="translate(-1410.985 -697.687)" fill="#c1e3e2"/>
        <path id="パス_279" data-name="パス 279" d="M2111.172,720.415h-.063l-7.439-7.35-7.243,7.157-7.242-7.157-7.243,7.157-7.243-7.157-7.243,7.157-7.243-7.157-7.242,7.157-7.243-7.157-7.243,7.157-7.243-7.157-7.439,7.35h-.063l.031.031-.031.031h.063l7.439,7.35,7.243-7.157,7.243,7.157,7.243-7.157,7.242,7.157,7.243-7.157,7.243,7.157,7.243-7.157,7.243,7.157,7.242-7.157,7.243,7.157,7.439-7.35h.063l-.031-.031Z" transform="translate(-1894.471 -697.687)" fill="#c1e3e2"/>
      </g>
      <g id="グループ_212" data-name="グループ 212" transform="translate(62.299 272.054)">
        <g id="グループ_211" data-name="グループ 211">
          <path id="パス_280" data-name="パス 280" d="M1498.416,1648.5h-.063l-7.439-7.35-7.243,7.156-7.242-7.156-7.243,7.156-7.243-7.156-7.243,7.156-7.243-7.156-7.243,7.156-7.243-7.156-7.243,7.156-7.243-7.156-7.439,7.35h-.063l.031.031-.031.031h.063l7.439,7.351,7.243-7.157,7.243,7.157,7.243-7.157,7.243,7.157,7.243-7.157,7.243,7.157,7.243-7.157,7.243,7.157,7.242-7.157,7.243,7.157,7.439-7.351h.063l-.031-.031Z" transform="translate(-1410.985 -1641.155)" fill="#c1e3e2"/>
          <path id="パス_281" data-name="パス 281" d="M2111.172,1648.5h-.063l-7.439-7.35-7.243,7.156-7.242-7.156-7.243,7.156-7.243-7.156-7.243,7.156-7.243-7.156-7.242,7.156-7.243-7.156-7.243,7.156-7.243-7.156-7.439,7.35h-.063l.031.031-.031.031h.063l7.439,7.351,7.243-7.157,7.243,7.157,7.243-7.157,7.242,7.157,7.243-7.157,7.243,7.157,7.243-7.157,7.243,7.157,7.242-7.157,7.243,7.157,7.439-7.351h.063l-.031-.031Z" transform="translate(-1894.471 -1641.155)" fill="#c1e3e2"/>
        </g>
        <path id="パス_282" data-name="パス 282" d="M1498.416,1721.394h-.063l-7.439-7.35-7.243,7.157-7.242-7.157-7.243,7.157-7.243-7.157-7.243,7.157-7.243-7.157-7.243,7.157-7.243-7.157-7.243,7.157-7.243-7.157-7.439,7.35h-.063l.031.031-.031.031h.063l7.439,7.35,7.243-7.157,7.243,7.157,7.243-7.157,7.243,7.157,7.243-7.157,7.243,7.157,7.243-7.157,7.243,7.157,7.242-7.157,7.243,7.157,7.439-7.35h.063l-.031-.031Z" transform="translate(-1410.985 -1698.667)" fill="#c1e3e2"/>
        <path id="パス_283" data-name="パス 283" d="M2111.172,1721.394h-.063l-7.439-7.35-7.243,7.157-7.242-7.157-7.243,7.157-7.243-7.157-7.243,7.157-7.243-7.157-7.242,7.157-7.243-7.157-7.243,7.157-7.243-7.157-7.439,7.35h-.063l.031.031-.031.031h.063l7.439,7.35,7.243-7.157,7.243,7.157,7.243-7.157,7.242,7.157,7.243-7.157,7.243,7.157,7.243-7.157,7.243,7.157,7.242-7.157,7.243,7.157,7.439-7.35h.063l-.031-.031Z" transform="translate(-1894.471 -1698.667)" fill="#c1e3e2"/>
      </g>
      <path id="長方形_119" data-name="長方形 119" d="M27.68,0h0A27.68,27.68,0,0,1,55.36,27.68V51.655a0,0,0,0,1,0,0H0a0,0,0,0,1,0,0V27.68A27.68,27.68,0,0,1,27.68,0Z" transform="translate(142.969 32.724)" fill="#3a4796"/>
      <path id="長方形_120" data-name="長方形 120" d="M24.531,0h0A24.531,24.531,0,0,1,49.063,24.531v23.62a0,0,0,0,1,0,0H0a0,0,0,0,1,0,0V24.531A24.531,24.531,0,0,1,24.531,0Z" transform="translate(146.117 36.228)" fill="#c1e3e2"/>
      <path id="長方形_121" data-name="長方形 121" d="M21.039,0h0A21.039,21.039,0,0,1,42.078,21.039V45.113a0,0,0,0,1,0,0H0a0,0,0,0,1,0,0V21.039A21.039,21.039,0,0,1,21.039,0Z" transform="translate(149.586 39.482)" fill="#3a4796"/>
      <g id="グループ_213" data-name="グループ 213" transform="translate(149.586 39.482)">
        <path id="長方形_122" data-name="長方形 122" d="M21.039,0h0A21.039,21.039,0,0,1,42.078,21.039V45.113a0,0,0,0,1,0,0H0a0,0,0,0,1,0,0V21.039A21.039,21.039,0,0,1,21.039,0Z" fill="none" stroke="#d4c040" stroke-miterlimit="10" stroke-width="2"/>
        <path id="長方形_123" data-name="長方形 123" d="M12.837,0h0A12.837,12.837,0,0,1,25.673,12.837v22.7a0,0,0,0,1,0,0H0a0,0,0,0,1,0,0v-22.7A12.837,12.837,0,0,1,12.837,0Z" transform="translate(8.203 9.576)" fill="none" stroke="#d4c040" stroke-miterlimit="10" stroke-width="2"/>
      </g>
      <g id="グループ_217" data-name="グループ 217" transform="translate(149.562 39.482)">
        <g id="グループ_216" data-name="グループ 216" transform="translate(0 5.198)">
          <g id="グループ_214" data-name="グループ 214">
            <line id="線_54" data-name="線 54" x2="8.296" y2="1.463" transform="translate(0.18 13.705)" fill="none" stroke="#d4c040" stroke-miterlimit="10" stroke-width="1"/>
            <line id="線_55" data-name="線 55" x2="8.338" transform="translate(0 28.568)" fill="none" stroke="#d4c040" stroke-miterlimit="10" stroke-width="1"/>
            <line id="線_56" data-name="線 56" x1="6.564" y1="6.564" transform="translate(7.188)" fill="none" stroke="#d4c040" stroke-miterlimit="10" stroke-width="1"/>
          </g>
          <g id="グループ_215" data-name="グループ 215" transform="translate(28.421)">
            <line id="線_57" data-name="線 57" x1="8.296" y2="1.463" transform="translate(5.276 13.705)" fill="none" stroke="#d4c040" stroke-miterlimit="10" stroke-width="1"/>
            <line id="線_58" data-name="線 58" x1="8.338" transform="translate(5.414 28.568)" fill="none" stroke="#d4c040" stroke-miterlimit="10" stroke-width="1"/>
            <line id="線_59" data-name="線 59" y1="6.564" x2="6.564" fill="none" stroke="#d4c040" stroke-miterlimit="10" stroke-width="1"/>
          </g>
        </g>
        <line id="線_60" data-name="線 60" y1="9.576" transform="translate(21.087)" fill="none" stroke="#d4c040" stroke-miterlimit="10" stroke-width="1"/>
      </g>
      <g id="グループ_218" data-name="グループ 218" transform="translate(137.783 83.365)">
        <path id="パス_284" data-name="パス 284" d="M1833.116,765.876H1770.2l-1.407,3.59h65.732Z" transform="translate(-1768.791 -761.839)" fill="#3a4796"/>
        <rect id="長方形_124" data-name="長方形 124" width="57.273" height="2.858" transform="translate(4.229)" fill="#3a4796"/>
        <path id="パス_285" data-name="パス 285" d="M1835.555,760.284h-57.3l-2.814,1.18h62.925Z" transform="translate(-1774.041 -757.427)" fill="#2e376a"/>
      </g>
      <g id="グループ_221" data-name="グループ 221" transform="translate(59.298 310.485)">
        <g id="グループ_219" data-name="グループ 219" transform="translate(0 0)">
          <rect id="長方形_125" data-name="長方形 125" width="57.492" height="5.921" transform="translate(57.492 11.841) rotate(180)" fill="#c1e3e2"/>
          <path id="長方形_126" data-name="長方形 126" d="M0,0H57.492a0,0,0,0,1,0,0V0a5.921,5.921,0,0,1-5.921,5.921H0a0,0,0,0,1,0,0V0A0,0,0,0,1,0,0Z" transform="translate(57.492 5.921) rotate(180)" fill="#fff"/>
          <rect id="長方形_127" data-name="長方形 127" width="57.492" height="5.921" transform="translate(57.492 17.747) rotate(180)" fill="#fff"/>
        </g>
        <g id="グループ_220" data-name="グループ 220" transform="translate(165.209 0)">
          <rect id="長方形_128" data-name="長方形 128" width="57.492" height="5.921" transform="translate(57.492 11.841) rotate(180)" fill="#c1e3e2"/>
          <path id="長方形_129" data-name="長方形 129" d="M0,0H57.492a0,0,0,0,1,0,0V5.921a0,0,0,0,1,0,0H5.921A5.921,5.921,0,0,1,0,0V0A0,0,0,0,1,0,0Z" transform="translate(57.492 5.921) rotate(180)" fill="#fff"/>
          <rect id="長方形_130" data-name="長方形 130" width="57.492" height="5.921" transform="translate(57.492 17.747) rotate(180)" fill="#fff"/>
        </g>
      </g>
      <path id="パス_286" data-name="パス 286" d="M1765.258,1534.717a25.541,25.541,0,0,0-8.645-.993c-1.955-11.847-12.3-17.569-24.308-17.569s-22.353,5.722-24.308,17.569a25.543,25.543,0,0,0-8.645.993,24.956,24.956,0,0,0-6.7,3.139,26.605,26.605,0,0,0-11.757,22.231v23.83h102.817v-23.83a26.6,26.6,0,0,0-11.757-22.231A24.952,24.952,0,0,0,1765.258,1534.717Z" transform="translate(-1561.656 -1270.471)" fill="#c1e3e2"/>
      <g id="グループ_232" data-name="グループ 232" transform="translate(114.016 264.583)">
        <g id="グループ_226" data-name="グループ 226" transform="translate(102.682)">
          <path id="パス_287" data-name="パス 287" d="M2157.773,1605.738l.84,1.7,1.879.273-1.36,1.326.321,1.871-1.681-.884-1.681.884.321-1.871-1.36-1.326,1.879-.273Z" transform="translate(-2152.482 -1605.738)" fill="#d4c040"/>
          <rect id="長方形_131" data-name="長方形 131" width="7.255" height="31.279" transform="translate(1.664 9.711)" fill="#c1e3e2"/>
          <g id="グループ_222" data-name="グループ 222" transform="translate(2.698 18.18)">
            <rect id="長方形_132" data-name="長方形 132" width="0.602" height="22.81" fill="#3a4796"/>
            <rect id="長方形_133" data-name="長方形 133" width="0.602" height="22.81" transform="translate(1.528)" fill="#3a4796"/>
            <rect id="長方形_134" data-name="長方形 134" width="0.602" height="22.81" transform="translate(3.056)" fill="#3a4796"/>
            <rect id="長方形_135" data-name="長方形 135" width="0.602" height="22.81" transform="translate(4.584)" fill="#3a4796"/>
          </g>
          <g id="グループ_223" data-name="グループ 223" transform="translate(0 5.004)">
            <path id="パス_288" data-name="パス 288" d="M2152.892,1631.674h-9.476l-.554-2.215h10.583Z" transform="translate(-2142.862 -1629.459)" fill="#3a4796"/>
            <rect id="長方形_136" data-name="長方形 136" width="7.255" height="1.764" transform="translate(1.664 2.944)" fill="#3a4796"/>
            <path id="パス_289" data-name="パス 289" d="M2153.851,1640.688h-7.264l-1.107-.728h9.479Z" transform="translate(-2144.927 -1637.745)" fill="#2e376a"/>
          </g>
          <g id="グループ_224" data-name="グループ 224" transform="translate(0 40.99)">
            <path id="パス_290" data-name="パス 290" d="M2152.892,1811.848h-9.476l-.554,2.216h10.583Z" transform="translate(-2142.862 -1809.357)" fill="#3a4796"/>
            <rect id="長方形_137" data-name="長方形 137" width="7.255" height="1.764" transform="translate(1.664)" fill="#3a4796"/>
            <path id="パス_291" data-name="パス 291" d="M2153.851,1808.4h-7.264l-1.107.728h9.479Z" transform="translate(-2144.927 -1806.633)" fill="#2e376a"/>
          </g>
          <g id="グループ_225" data-name="グループ 225" transform="translate(1.664 17.582)">
            <rect id="長方形_138" data-name="長方形 138" width="7.255" height="1.195" fill="#3a4796"/>
            <rect id="長方形_139" data-name="長方形 139" width="7.255" height="0.633" transform="translate(0 1.195)" fill="#2e376a"/>
          </g>
        </g>
        <g id="グループ_231" data-name="グループ 231">
          <path id="パス_292" data-name="パス 292" d="M1671.045,1605.738l.84,1.7,1.879.273-1.36,1.326.321,1.871-1.681-.884-1.681.884.321-1.871-1.36-1.326,1.879-.273Z" transform="translate(-1665.754 -1605.738)" fill="#d4c040"/>
          <rect id="長方形_140" data-name="長方形 140" width="7.255" height="31.279" transform="translate(1.664 9.711)" fill="#c1e3e2"/>
          <g id="グループ_227" data-name="グループ 227" transform="translate(2.698 18.18)">
            <rect id="長方形_141" data-name="長方形 141" width="0.602" height="22.81" fill="#3a4796"/>
            <rect id="長方形_142" data-name="長方形 142" width="0.602" height="22.81" transform="translate(1.528)" fill="#3a4796"/>
            <rect id="長方形_143" data-name="長方形 143" width="0.602" height="22.81" transform="translate(3.056)" fill="#3a4796"/>
            <rect id="長方形_144" data-name="長方形 144" width="0.602" height="22.81" transform="translate(4.584)" fill="#3a4796"/>
          </g>
          <g id="グループ_228" data-name="グループ 228" transform="translate(0 5.004)">
            <path id="パス_293" data-name="パス 293" d="M1666.163,1631.674h-9.476l-.554-2.215h10.583Z" transform="translate(-1656.134 -1629.459)" fill="#3a4796"/>
            <rect id="長方形_145" data-name="長方形 145" width="7.255" height="1.764" transform="translate(1.664 2.944)" fill="#3a4796"/>
            <path id="パス_294" data-name="パス 294" d="M1667.123,1640.688h-7.264l-1.107-.728h9.478Z" transform="translate(-1658.2 -1637.745)" fill="#2e376a"/>
          </g>
          <g id="グループ_229" data-name="グループ 229" transform="translate(0 40.99)">
            <path id="パス_295" data-name="パス 295" d="M1666.163,1811.848h-9.476l-.554,2.216h10.583Z" transform="translate(-1656.134 -1809.357)" fill="#3a4796"/>
            <rect id="長方形_146" data-name="長方形 146" width="7.255" height="1.764" transform="translate(1.664)" fill="#3a4796"/>
            <path id="パス_296" data-name="パス 296" d="M1667.123,1808.4h-7.264l-1.107.728h9.478Z" transform="translate(-1658.2 -1806.633)" fill="#2e376a"/>
          </g>
          <g id="グループ_230" data-name="グループ 230" transform="translate(1.664 17.582)">
            <rect id="長方形_147" data-name="長方形 147" width="7.255" height="1.195" fill="#3a4796"/>
            <rect id="長方形_148" data-name="長方形 148" width="7.255" height="0.633" transform="translate(0 1.195)" fill="#2e376a"/>
          </g>
        </g>
      </g>
      <g id="グループ_239" data-name="グループ 239" transform="translate(114.809 310.485)">
        <g id="グループ_235" data-name="グループ 235" transform="translate(0 0)">
          <g id="グループ_233" data-name="グループ 233">
            <rect id="長方形_149" data-name="長方形 149" width="111.68" height="4.933" transform="translate(111.68 9.866) rotate(180)" fill="#c1e3e2"/>
            <rect id="長方形_150" data-name="長方形 150" width="111.68" height="4.933" transform="translate(111.68 4.933) rotate(180)" fill="#e8f4f3"/>
          </g>
          <g id="グループ_234" data-name="グループ 234" transform="translate(0 9.854)">
            <rect id="長方形_151" data-name="長方形 151" width="111.68" height="4.933" transform="translate(111.68 9.866) rotate(180)" fill="#c1e3e2"/>
            <rect id="長方形_152" data-name="長方形 152" width="111.68" height="4.933" transform="translate(111.68 4.933) rotate(180)" fill="#e8f4f3"/>
          </g>
        </g>
        <g id="グループ_238" data-name="グループ 238" transform="translate(0 19.72)">
          <g id="グループ_236" data-name="グループ 236" transform="translate(0 0)">
            <rect id="長方形_153" data-name="長方形 153" width="111.68" height="4.933" transform="translate(111.68 9.866) rotate(180)" fill="#c1e3e2"/>
            <rect id="長方形_154" data-name="長方形 154" width="111.68" height="4.933" transform="translate(111.68 4.933) rotate(180)" fill="#e8f4f3"/>
          </g>
          <g id="グループ_237" data-name="グループ 237" transform="translate(0 9.854)">
            <rect id="長方形_155" data-name="長方形 155" width="111.68" height="4.933" transform="translate(111.68 9.866) rotate(180)" fill="#c1e3e2"/>
            <rect id="長方形_156" data-name="長方形 156" width="111.68" height="4.933" transform="translate(111.68 4.933) rotate(180)" fill="#e8f4f3"/>
          </g>
        </g>
      </g>
      <g id="グループ_246" data-name="グループ 246" transform="translate(140.669 217.161)">
        <g id="グループ_240" data-name="グループ 240" transform="translate(0.847 0.229)">
          <path id="パス_297" data-name="パス 297" d="M1805.086,1398.839c.437-.036.625-.259.931-.621.165-.195.261-.28.415-.293a.367.367,0,0,1,.389.33,1.381,1.381,0,0,1-.342.856,4.209,4.209,0,0,1-3.12,1.967c-1.695.141-2.587-.948-2.728-2.643a26.434,26.434,0,0,1,.332-5.018,4.411,4.411,0,0,0-2.953,1.177c-.706.834-1.4,4.951-1.273,6.441.037.437-.135.554-.494.584-.8.067-2.324.349-2.735.383-.308.026-.526-.111-.563-.548-.182-2.182,2.405-10.543,2.082-14.42a.993.993,0,0,0-1.219-.984c-1.977.165-3.7,3.024-3.531,5.1.071.847.591,1.192,1.13,1.147.334-.028.625-.259.8-.274s.266.081.281.261a3.55,3.55,0,0,1-3.043,2.891,2.692,2.692,0,0,1-2.94-2.7c-.364-4.365,3.815-7.583,7.77-7.913,2.465-.205,4.019.751,4.194,2.857a24.449,24.449,0,0,1-.473,4.875l3.184-.265c.366-2.435.822-4.723,1.053-5.673.3-1.344,2.758-2.272,3.528-2.337.308-.026.524.086.548.368s-.49.946-.73,1.793a59.8,59.8,0,0,0-1.464,11.292C1804.194,1398.37,1804.521,1398.886,1805.086,1398.839Z" transform="translate(-1786.486 -1383.598)" fill="#3a4796"/>
          <path id="パス_298" data-name="パス 298" d="M1887.29,1425.2c.24,2.876-1.378,5.493-4.536,5.756-2.26.188-3.832-1-4-3.053-.208-2.491,1.562-5.146,5.08-5.439A2.981,2.981,0,0,1,1887.29,1425.2Zm-2.369.74c-.822-.242-1.076-.505-1.115-.967-.053-.642.315-.88.3-1.034-.011-.128-.094-.2-.248-.186a1.424,1.424,0,0,0-.689.419,3.633,3.633,0,0,0-1.014,3.032,1.694,1.694,0,0,0,1.828,1.761,1.894,1.894,0,0,0,1.532-2.093A.986.986,0,0,0,1884.921,1425.936Z" transform="translate(-1859.273 -1413.919)" fill="#3a4796"/>
          <path id="パス_299" data-name="パス 299" d="M1924.9,1411.268a13.231,13.231,0,0,0-.3,2.947c.064.77.473,1.021,1.089.969.514-.043.986-.574,1.369-.942.167-.169.287-.282.441-.3a.319.319,0,0,1,.359.28.89.89,0,0,1-.162.531c-.595.929-2.168,2.534-3.76,2.666a2.353,2.353,0,0,1-2.85-2.245c-.137-1.643.552-2.994.445-4.277-.028-.334-.7-.071-.743-.533-.021-.257.092-.758.375-.781,1.361-.114,2.508-1.554,3.086-2.688.222-.432.415-.6.646-.623a.391.391,0,0,1,.445.377c.047.565-.225,1.648-.188,2.084.028.334.146.505.916.441.205-.017.366.047.383.253.043.514-.21.9-.518.922A.968.968,0,0,0,1924.9,1411.268Z" transform="translate(-1892.456 -1401.162)" fill="#3a4796"/>
          <path id="パス_300" data-name="パス 300" d="M1958.771,1421.735a.988.988,0,0,1,.514-.353.3.3,0,0,1,.334.282c.021.257-.09.473-.441.916a5.851,5.851,0,0,1-4.417,2.54c-2.414.2-4.2-.736-4.4-3.2-.208-2.491,1.609-4.892,5.024-5.176,1.746-.146,2.606.558,2.7,1.663.122,1.464-1.481,3.019-4.031,3.438.075.9.826,1.534,2.058,1.432A4.36,4.36,0,0,0,1958.771,1421.735Zm-2.58-3.353a.539.539,0,0,0-.665-.539c-.771.064-1.693,1.408-1.567,2.923A3.017,3.017,0,0,0,1956.19,1418.382Z" transform="translate(-1915.774 -1409.406)" fill="#3a4796"/>
          <path id="パス_301" data-name="パス 301" d="M1994.261,1395.033a1.119,1.119,0,0,0,.7-.317c.143-.141.214-.225.342-.236a.27.27,0,0,1,.306.259,1.138,1.138,0,0,1-.255.667,3.23,3.23,0,0,1-2.574,1.688,2.287,2.287,0,0,1-2.717-2.2c-.195-2.337,1.509-5.788,1.177-9.768-.07-.847-.541-1.222-1.106-1.175-.231.02-.368-.073-.385-.278-.045-.539,1.245-1.5,2.709-1.622a1.935,1.935,0,0,1,2.349,1.821c.18,2.157-1.44,7.541-1.235,10.006C1993.642,1394.748,1993.9,1395.063,1994.261,1395.033Z" transform="translate(-1946.864 -1382.036)" fill="#3a4796"/>
        </g>
        <g id="グループ_245" data-name="グループ 245">
          <g id="グループ_241" data-name="グループ 241">
            <path id="パス_302" data-name="パス 302" d="M1801.072,1397.755c.436-.036.625-.259.931-.62.165-.195.261-.28.415-.293a.367.367,0,0,1,.39.33,1.384,1.384,0,0,1-.342.856,4.208,4.208,0,0,1-3.12,1.967c-1.695.141-2.587-.948-2.728-2.643a26.434,26.434,0,0,1,.332-5.018,4.411,4.411,0,0,0-2.953,1.177c-.706.834-1.4,4.951-1.273,6.441.036.436-.135.554-.494.584-.8.067-2.324.349-2.735.383-.308.026-.526-.111-.563-.548-.182-2.183,2.4-10.543,2.082-14.42a.994.994,0,0,0-1.22-.984c-1.977.165-3.7,3.023-3.531,5.1.071.847.591,1.192,1.13,1.147.334-.028.625-.259.8-.274s.265.081.28.261a3.549,3.549,0,0,1-3.043,2.891,2.692,2.692,0,0,1-2.94-2.7c-.364-4.365,3.815-7.583,7.769-7.913,2.465-.205,4.019.751,4.194,2.857a24.434,24.434,0,0,1-.473,4.875l3.184-.265c.366-2.435.822-4.723,1.053-5.673.3-1.344,2.758-2.273,3.529-2.337.308-.026.524.085.548.368s-.49.946-.73,1.793a59.822,59.822,0,0,0-1.464,11.292C1800.179,1397.286,1800.507,1397.8,1801.072,1397.755Z" transform="translate(-1782.472 -1382.513)" fill="#ce4833"/>
            <path id="パス_303" data-name="パス 303" d="M1883.275,1424.112c.24,2.876-1.378,5.493-4.536,5.756-2.26.188-3.832-1-4-3.053-.208-2.491,1.562-5.146,5.08-5.44A2.981,2.981,0,0,1,1883.275,1424.112Zm-2.369.74c-.822-.242-1.076-.5-1.115-.967-.054-.642.315-.88.3-1.034-.01-.128-.094-.2-.248-.186a1.428,1.428,0,0,0-.689.42,3.633,3.633,0,0,0-1.014,3.032,1.694,1.694,0,0,0,1.828,1.761,1.894,1.894,0,0,0,1.532-2.093A.986.986,0,0,0,1880.906,1424.852Z" transform="translate(-1855.258 -1412.835)" fill="#ce4833"/>
            <path id="パス_304" data-name="パス 304" d="M1920.886,1410.184a13.251,13.251,0,0,0-.3,2.946c.064.77.473,1.021,1.089.969.514-.043.987-.573,1.37-.942.167-.169.287-.282.441-.3a.32.32,0,0,1,.359.28.888.888,0,0,1-.162.531c-.595.929-2.167,2.534-3.76,2.666a2.353,2.353,0,0,1-2.85-2.245c-.137-1.643.552-2.994.445-4.278-.028-.334-.7-.07-.743-.533-.021-.257.092-.758.374-.781,1.361-.113,2.508-1.553,3.086-2.688.223-.432.415-.6.646-.623a.391.391,0,0,1,.445.377c.047.565-.225,1.648-.188,2.084.028.334.146.5.916.441.205-.017.366.047.383.253.042.514-.21.9-.518.922A.968.968,0,0,0,1920.886,1410.184Z" transform="translate(-1888.442 -1400.078)" fill="#ce4833"/>
            <path id="パス_305" data-name="パス 305" d="M1954.757,1420.651a.989.989,0,0,1,.513-.353.3.3,0,0,1,.334.282c.021.257-.09.473-.441.916a5.852,5.852,0,0,1-4.417,2.54c-2.414.2-4.2-.736-4.4-3.2-.208-2.491,1.609-4.892,5.024-5.176,1.746-.146,2.606.558,2.7,1.663.122,1.463-1.481,3.019-4.032,3.438.075.9.826,1.534,2.059,1.432A4.36,4.36,0,0,0,1954.757,1420.651Zm-2.58-3.353a.539.539,0,0,0-.666-.539c-.771.064-1.693,1.408-1.566,2.923A3.017,3.017,0,0,0,1952.177,1417.3Z" transform="translate(-1911.76 -1408.322)" fill="#ce4833"/>
            <path id="パス_306" data-name="パス 306" d="M1990.246,1393.948a1.115,1.115,0,0,0,.7-.317c.144-.141.214-.224.343-.235a.27.27,0,0,1,.306.259,1.141,1.141,0,0,1-.255.668,3.231,3.231,0,0,1-2.574,1.688,2.287,2.287,0,0,1-2.718-2.2c-.195-2.337,1.509-5.788,1.177-9.768-.071-.848-.541-1.222-1.106-1.175-.231.019-.368-.073-.385-.278-.045-.539,1.245-1.5,2.709-1.622a1.934,1.934,0,0,1,2.349,1.821c.18,2.157-1.44,7.541-1.235,10.006C1989.628,1393.664,1989.887,1393.978,1990.246,1393.948Z" transform="translate(-1942.85 -1380.952)" fill="#ce4833"/>
          </g>
          <g id="グループ_244" data-name="グループ 244" transform="translate(9.665 16.6)">
            <g id="グループ_242" data-name="グループ 242" transform="translate(0.935 0.374)">
              <path id="パス_307" data-name="パス 307" d="M1853.1,1474.749a1.736,1.736,0,0,0,1.135-.716c.208-.23.327-.285.449-.291a.27.27,0,0,1,.281.254c.048.949-1.719,3.16-3.616,3.255-1.606.081-2.415-.976-2.5-2.581a41.34,41.34,0,0,1,1.229-7.549l-.195.01c-.818,2.163-2.958,7.125-3.658,9.672-.1.42-.256.72-.621.739l-1.9.1c-.292.015-.493-.1-.513-.511-.014-.268.107-7.542,0-9.658l-.195.01c-.537,3.856-1.679,11.206-6.836,11.466a3.053,3.053,0,0,1-3.445-3.021,3.391,3.391,0,0,1,2.592-3.252c.243-.012.347.1.355.275a8.389,8.389,0,0,0-.118,1.055,1.213,1.213,0,0,0,1.352,1.175c3.406-.172,4.773-8.362,4.639-11.014a1.26,1.26,0,0,0-1.211-1.28c-1.362.069-3.1,2.3-3,4.273.04.8.521,1.144,1.032,1.119.316-.016.6-.225.744-.233a.244.244,0,0,1,.281.254,3.363,3.363,0,0,1-2.989,2.639,2.54,2.54,0,0,1-2.67-2.646c-.208-4.136,3.86-6.634,6.9-6.787,5.06-.255,5.5,4.625,5.681,8.177.06,1.192.079,2.045.08,2.069.127-.372,2.932-7.635,3.936-9a5.7,5.7,0,0,1,3.64-1.33.409.409,0,0,1,.46.416,17.174,17.174,0,0,1-.673,1.644,49.028,49.028,0,0,0-1.594,9.982C1852.2,1474.307,1852.564,1474.776,1853.1,1474.749Z" transform="translate(-1832.718 -1461.413)" fill="#3a4796"/>
              <path id="パス_308" data-name="パス 308" d="M1934.594,1487.105c-.078-1.557.645-3.179.6-4.055-.021-.413-.169-.455-.185-.771-.027-.535,1.244-.965,2.655-1.036.535-.027.838.177.859.591.049.973-.652,2.545-.571,4.151.032.633.415.979.853.957.414-.021.6-.225.9-.557.162-.179.256-.257.4-.264a.347.347,0,0,1,.358.323,1.308,1.308,0,0,1-.35.8A3.979,3.979,0,0,1,1937.1,1489C1935.5,1489.084,1934.651,1488.224,1934.594,1487.105Zm2.717-10.454a1.248,1.248,0,0,1,1.427,1.221,2.076,2.076,0,0,1-1.7,2.11,1.337,1.337,0,0,1-1.428-1.245A2.051,2.051,0,0,1,1937.31,1476.651Z" transform="translate(-1913.097 -1473.435)" fill="#3a4796"/>
              <path id="パス_309" data-name="パス 309" d="M1964.216,1502.151c-.075-1.484.655-2.5.607-3.445-.02-.389-.253-.67-.594-.653-.414.021-.977.464-1.458,1.561a12.377,12.377,0,0,0-.852,3.9c.021.414-.145.52-.51.538-.73.037-1.672.206-2.037.225-.316.016-.517-.1-.538-.509-.045-.9.811-4.236.744-5.55-.021-.413-.193-.453-.209-.77-.027-.535,1.268-.966,2.679-1.038.535-.027.838.177.859.591a5.663,5.663,0,0,1-.139,1.1,5.063,5.063,0,0,1,3.221-1.894c1.338-.068,1.9.514,1.951,1.438.056,1.119-.563,2.37-.513,3.367.032.633.385.858.823.836.414-.021.6-.225.9-.557.162-.179.255-.257.4-.264a.347.347,0,0,1,.358.323,1.309,1.309,0,0,1-.35.8,3.979,3.979,0,0,1-3.009,1.762A1.986,1.986,0,0,1,1964.216,1502.151Z" transform="translate(-1932.227 -1488.864)" fill="#3a4796"/>
              <path id="パス_310" data-name="パス 310" d="M2012.165,1483.387a.926.926,0,0,0,.62-.275c.164-.13.209-.206.355-.213a.237.237,0,0,1,.257.255,1.08,1.08,0,0,1-.261.623,3.192,3.192,0,0,1-2.557,1.519c-1.606.081-2.356-.784-2.413-1.9-.079-1.557.645-3.179.6-4.054-.021-.413-.169-.455-.185-.771-.027-.535,1.244-.965,2.655-1.037.535-.027.838.177.859.591.049.973-.64,2.788-.559,4.394C2011.567,1483.125,2011.825,1483.4,2012.165,1483.387Zm-1.283-10.447a1.248,1.248,0,0,1,1.427,1.221,2.076,2.076,0,0,1-1.7,2.11,1.336,1.336,0,0,1-1.429-1.245A2.051,2.051,0,0,1,2010.882,1472.94Z" transform="translate(-1971.148 -1470.506)" fill="#3a4796"/>
            </g>
            <g id="グループ_243" data-name="グループ 243">
              <path id="パス_311" data-name="パス 311" d="M1848.667,1472.976a1.736,1.736,0,0,0,1.135-.716c.208-.23.327-.285.449-.291a.27.27,0,0,1,.281.254c.048.949-1.719,3.16-3.616,3.255-1.606.081-2.415-.976-2.5-2.581a41.31,41.31,0,0,1,1.229-7.549l-.195.01c-.818,2.163-2.958,7.125-3.658,9.672-.1.419-.256.72-.621.739l-1.9.1c-.292.015-.492-.1-.513-.511-.013-.268.107-7.542,0-9.658l-.195.01c-.537,3.856-1.678,11.206-6.836,11.466a3.054,3.054,0,0,1-3.445-3.021,3.392,3.392,0,0,1,2.592-3.252c.243-.012.346.1.355.275a8.448,8.448,0,0,0-.117,1.055,1.213,1.213,0,0,0,1.352,1.176c3.406-.172,4.773-8.363,4.639-11.014a1.26,1.26,0,0,0-1.211-1.28c-1.362.069-3.1,2.3-3,4.273.041.8.521,1.145,1.032,1.119.316-.016.6-.225.744-.233a.243.243,0,0,1,.281.254,3.362,3.362,0,0,1-2.989,2.639,2.54,2.54,0,0,1-2.67-2.646c-.208-4.135,3.86-6.634,6.9-6.787,5.06-.255,5.5,4.625,5.68,8.177.06,1.192.079,2.045.08,2.069.128-.372,2.932-7.635,3.936-9a5.7,5.7,0,0,1,3.64-1.33.409.409,0,0,1,.46.416,17.19,17.19,0,0,1-.673,1.644,49.008,49.008,0,0,0-1.594,9.982C1847.767,1472.534,1848.132,1473,1848.667,1472.976Z" transform="translate(-1828.285 -1459.639)" fill="#ce4833"/>
              <path id="パス_312" data-name="パス 312" d="M1930.162,1485.332c-.078-1.557.645-3.179.6-4.054-.021-.414-.169-.455-.185-.771-.027-.535,1.244-.965,2.655-1.036.535-.027.838.177.859.591.049.973-.652,2.545-.571,4.151.032.633.415.979.853.957.414-.021.6-.225.9-.557.162-.179.256-.257.4-.264a.347.347,0,0,1,.357.323,1.306,1.306,0,0,1-.35.8,3.979,3.979,0,0,1-3.009,1.762C1931.067,1487.311,1930.218,1486.451,1930.162,1485.332Zm2.717-10.454a1.248,1.248,0,0,1,1.427,1.221,2.076,2.076,0,0,1-1.7,2.11,1.336,1.336,0,0,1-1.429-1.245A2.051,2.051,0,0,1,1932.878,1474.879Z" transform="translate(-1908.665 -1471.662)" fill="#ce4833"/>
              <path id="パス_313" data-name="パス 313" d="M1959.784,1500.378c-.075-1.484.655-2.5.607-3.445-.02-.389-.253-.67-.594-.653-.413.021-.977.464-1.458,1.561a12.366,12.366,0,0,0-.852,3.9c.021.414-.145.52-.51.538-.73.037-1.672.206-2.037.225-.316.016-.517-.1-.538-.509-.046-.9.81-4.236.744-5.55-.021-.413-.193-.453-.209-.77-.027-.535,1.268-.966,2.679-1.038.535-.027.838.177.859.591a5.655,5.655,0,0,1-.139,1.1,5.067,5.067,0,0,1,3.221-1.894c1.338-.068,1.9.514,1.951,1.438.056,1.119-.563,2.37-.513,3.367.032.633.385.858.823.836.413-.021.6-.225.9-.557.161-.179.255-.257.4-.264a.347.347,0,0,1,.358.323,1.308,1.308,0,0,1-.35.8,3.979,3.979,0,0,1-3.009,1.761A1.986,1.986,0,0,1,1959.784,1500.378Z" transform="translate(-1927.795 -1487.09)" fill="#ce4833"/>
              <path id="パス_314" data-name="パス 314" d="M2007.733,1481.615a.926.926,0,0,0,.62-.275c.164-.13.209-.206.355-.213a.237.237,0,0,1,.257.255,1.081,1.081,0,0,1-.261.623,3.192,3.192,0,0,1-2.557,1.519c-1.606.081-2.357-.783-2.413-1.9-.079-1.557.645-3.179.6-4.055-.021-.413-.169-.455-.185-.771-.027-.535,1.244-.965,2.655-1.036.535-.027.838.177.859.591.049.973-.64,2.788-.559,4.394C2007.135,1481.352,2007.393,1481.632,2007.733,1481.615Zm-1.283-10.447a1.248,1.248,0,0,1,1.427,1.221,2.076,2.076,0,0,1-1.7,2.11,1.336,1.336,0,0,1-1.428-1.245A2.051,2.051,0,0,1,2006.45,1471.167Z" transform="translate(-1966.716 -1468.733)" fill="#ce4833"/>
            </g>
          </g>
        </g>
      </g>
    </g>
    <g id="扉_右" transform="translate(1286.328 603.225)">
      <g id="グループ_250" data-name="グループ 250" transform="translate(0)">
        <g id="グループ_249" data-name="グループ 249">
          <g id="グループ_247" data-name="グループ 247">
            <path id="パス_315" data-name="パス 315" d="M1969.951,1583.195a23.48,23.48,0,0,0-10.376-19.62,22.027,22.027,0,0,0-5.912-2.77,22.545,22.545,0,0,0-7.63-.876c-1.726-10.456-10.856-15.506-21.454-15.506v62.861h45.372Z" transform="translate(-1924.579 -1544.422)" fill="#3a4796"/>
            <path id="パス_316" data-name="パス 316" d="M1924.578,1549.686c9.26,0,17.238,5.941,18.746,15.077l2.707-4.835c-1.725-10.456-10.856-15.506-21.453-15.506h0v5.264Z" transform="translate(-1924.577 -1544.422)" fill="none" stroke="#d4c040" stroke-linecap="round" stroke-linejoin="round" stroke-width="1"/>
            <path id="パス_317" data-name="パス 317" d="M1969.95,1641.062a23.48,23.48,0,0,0-10.376-19.62,22.02,22.02,0,0,0-5.912-2.77,22.549,22.549,0,0,0-7.63-.876l-2.707,4.835a17.679,17.679,0,0,1,11.833,1.658c5.823,3.2,9.3,9.856,9.067,17.144v21.048h-39.647v2.669h45.373Z" transform="translate(-1924.577 -1602.29)" fill="none" stroke="#d4c040" stroke-linecap="round" stroke-linejoin="round" stroke-width="1"/>
          </g>
          <g id="グループ_248" data-name="グループ 248" transform="translate(3.504 31.386)">
            <path id="パス_318" data-name="パス 318" d="M1947.492,1693.2a5.763,5.763,0,0,1,2.35,1.282c2.766,2.554,1.056,6.613,3.419,9.615a7.54,7.54,0,0,0,4.831,2.573" transform="translate(-1946.162 -1693.195)" fill="none" stroke="#d4c040" stroke-linecap="round" stroke-linejoin="round" stroke-width="2"/>
            <circle id="楕円形_91" data-name="楕円形 91" cx="2.213" cy="2.213" r="2.213" transform="translate(9.717 9.11)" fill="#d4c040"/>
            <circle id="楕円形_92" data-name="楕円形 92" cx="1.33" cy="1.33" r="1.33" fill="#d4c040"/>
          </g>
        </g>
      </g>
    </g>
    <g id="扉_左" transform="translate(1240.957 603.225)">
      <g id="グループ_253" data-name="グループ 253" transform="translate(0)">
        <g id="グループ_251" data-name="グループ 251">
          <path id="パス_319" data-name="パス 319" d="M1733.427,1559.928a22.545,22.545,0,0,0-7.63.876,22.024,22.024,0,0,0-5.912,2.77,23.48,23.48,0,0,0-10.376,19.62v24.088h45.372v-62.861C1744.284,1544.422,1735.153,1549.472,1733.427,1559.928Z" transform="translate(-1709.509 -1544.422)" fill="#3a4796"/>
          <path id="パス_320" data-name="パス 320" d="M1844.341,1549.686v-5.264c-10.6,0-19.727,5.051-21.453,15.506l2.708,4.835C1827.1,1555.627,1835.081,1549.687,1844.341,1549.686Z" transform="translate(-1798.969 -1544.422)" fill="none" stroke="#d4c040" stroke-linecap="round" stroke-linejoin="round" stroke-width="1"/>
          <path id="パス_321" data-name="パス 321" d="M1715.237,1662.481v-21.048c-.229-7.288,3.243-13.942,9.067-17.144a17.679,17.679,0,0,1,11.833-1.658l-2.708-4.835a22.548,22.548,0,0,0-7.63.876,22.025,22.025,0,0,0-5.912,2.77,23.48,23.48,0,0,0-10.377,19.62v24.088h45.371v-2.669Z" transform="translate(-1709.511 -1602.29)" fill="none" stroke="#d4c040" stroke-linecap="round" stroke-linejoin="round" stroke-width="1"/>
        </g>
        <g id="グループ_252" data-name="グループ 252" transform="translate(27.704 31.386)">
          <path id="パス_322" data-name="パス 322" d="M1861.92,1693.2a5.763,5.763,0,0,0-2.35,1.282c-2.766,2.554-1.056,6.613-3.419,9.615a7.54,7.54,0,0,1-4.831,2.573" transform="translate(-1849.107 -1693.195)" fill="none" stroke="#d4c040" stroke-linecap="round" stroke-linejoin="round" stroke-width="2"/>
          <circle id="楕円形_93" data-name="楕円形 93" cx="2.213" cy="2.213" r="2.213" transform="translate(0 9.11)" fill="#d4c040"/>
          <circle id="楕円形_94" data-name="楕円形 94" cx="1.33" cy="1.33" r="1.33" transform="translate(11.484)" fill="#d4c040"/>
        </g>
      </g>
    </g>
  </g>
</svg>
