<svg xmlns="http://www.w3.org/2000/svg" width="322.876" height="197.783" viewBox="0 0 322.876 197.783">
  <g id="ttl" transform="translate(-119.353 -336.67)">
    <g id="hotel" transform="translate(134.013 367.474)">
      <g id="グループ_101" data-name="グループ 101" transform="translate(4.192 1.132)">
        <path id="パス_168" data-name="パス 168" d="M231.785,446.778c2.161-.18,3.093-1.281,4.607-3.071.816-.964,1.292-1.388,2.054-1.451a1.819,1.819,0,0,1,1.928,1.631c.117,1.4-.561,2.479-1.695,4.237-2.383,3.655-7.435,9.067-15.442,9.734-8.388.7-12.8-4.692-13.5-13.081-.466-5.592.276-15.125,1.642-24.838-4.957.413-11.238,1.833-14.616,5.826-3.5,4.13-6.917,24.508-6.3,31.88.18,2.161-.667,2.744-2.447,2.892-3.94.328-11.5,1.725-13.536,1.9-1.526.127-2.606-.551-2.785-2.711-.9-10.8,11.9-52.185,10.306-71.377-.307-3.685-2.606-5.158-6.037-4.872-9.787.816-18.334,14.965-17.476,25.261.349,4.194,2.923,5.9,5.592,5.677,1.652-.138,3.093-1.281,3.982-1.356s1.314.4,1.388,1.292c.318,3.814-5.783,13.536-15.061,14.309-7.627.636-13.812-4.48-14.553-13.377-1.8-21.607,18.885-37.536,38.458-39.167,12.2-1.017,19.891,3.717,20.759,14.139.477,5.721-.837,14.532-2.341,24.129l15.761-1.314c1.812-12.053,4.067-23.376,5.212-28.079,1.493-6.651,13.652-11.248,17.465-11.566,1.526-.127,2.595.424,2.711,1.823s-2.425,4.681-3.611,8.874c-3.294,11.154-7.933,47.631-7.244,55.892C227.368,444.459,228.989,447.011,231.785,446.778Z" transform="translate(-139.719 -371.336)" fill="#3a4796"/>
        <path id="パス_169" data-name="パス 169" d="M286.132,430.373c1.187,14.235-6.82,27.188-22.453,28.491-11.185.932-18.97-4.946-19.818-15.114-1.027-12.329,7.732-25.473,25.145-26.924C278.41,416.043,285.4,421.6,286.132,430.373Zm-11.725,3.665c-4.067-1.2-5.327-2.5-5.518-4.788-.265-3.177,1.557-4.353,1.493-5.115-.053-.635-.467-.985-1.228-.922a7.074,7.074,0,0,0-3.41,2.076c-2.966,2.807-5.624,7.764-5.021,15.008.477,5.72,4.089,9.13,9.045,8.717,5.085-.424,7.955-5.91,7.584-10.358C277.171,436.495,276.25,434.652,274.407,434.038Z" transform="translate(-147.453 -374.558)" fill="#3a4796"/>
        <path id="パス_170" data-name="パス 170" d="M311.571,423.224c-.71,3.771-1.823,10.391-1.473,14.585.318,3.813,2.341,5.052,5.391,4.8,2.542-.212,4.883-2.839,6.779-4.661.826-.836,1.419-1.4,2.181-1.462a1.584,1.584,0,0,1,1.78,1.388,4.406,4.406,0,0,1-.8,2.627c-2.945,4.6-10.73,12.541-18.61,13.2-9.151.763-13.546-4.375-14.108-11.111-.678-8.134,2.733-14.817,2.2-21.172-.137-1.652-3.484-.35-3.675-2.637-.106-1.272.455-3.75,1.853-3.867,6.736-.561,12.413-7.69,15.274-13.3,1.1-2.139,2.054-2.987,3.2-3.082a1.937,1.937,0,0,1,2.2,1.863c.232,2.8-1.113,8.156-.932,10.317.137,1.652.72,2.5,4.533,2.182,1.017-.085,1.812.233,1.9,1.25.211,2.542-1.039,4.438-2.564,4.565C313.519,418.966,312.206,420.1,311.571,423.224Z" transform="translate(-150.979 -373.203)" fill="#3a4796"/>
        <path id="パス_171" data-name="パス 171" d="M366.284,435.105a4.887,4.887,0,0,1,2.542-1.748,1.47,1.47,0,0,1,1.652,1.4c.106,1.271-.444,2.34-2.182,4.533-3.824,4.8-9.533,11.544-21.861,12.572-11.948,1-20.78-3.643-21.8-15.845-1.028-12.328,7.965-24.211,24.869-25.62,8.642-.72,12.9,2.763,13.356,8.229.6,7.244-7.33,14.944-19.954,17.02.37,4.449,4.089,7.594,10.189,7.086C359.579,442.191,363.678,437.625,366.284,435.105Zm-12.773-16.6c-.158-1.906-1.261-2.839-3.294-2.67-3.813.318-8.378,6.969-7.753,14.468C349.592,428.305,353.765,421.559,353.51,418.508Z" transform="translate(-153.456 -374.079)" fill="#3a4796"/>
        <path id="パス_172" data-name="パス 172" d="M391.362,435.5a5.527,5.527,0,0,0,3.453-1.567c.71-.7,1.059-1.112,1.695-1.165a1.338,1.338,0,0,1,1.514,1.282,5.641,5.641,0,0,1-1.26,3.3c-2.606,4.056-6.133,7.806-12.742,8.357-8.515.709-12.9-4.3-13.451-10.91-.965-11.565,7.467-28.65,5.824-48.351-.349-4.193-2.68-6.047-5.475-5.814-1.144.1-1.822-.36-1.907-1.376-.222-2.67,6.165-7.425,13.409-8.029,6.608-.551,11.1,2.659,11.629,9.013.89,10.677-7.128,37.325-6.111,49.527C388.3,434.092,389.583,435.649,391.362,435.5Z" transform="translate(-156.76 -371.17)" fill="#3a4796"/>
      </g>
      <g id="グループ_102" data-name="グループ 102" transform="translate(0)">
        <path id="パス_173" data-name="パス 173" d="M227.256,445.555c2.161-.18,3.093-1.281,4.607-3.071.816-.964,1.292-1.388,2.055-1.451a1.817,1.817,0,0,1,1.927,1.631c.117,1.4-.561,2.479-1.694,4.237-2.384,3.655-7.435,9.067-15.443,9.734-8.388.7-12.8-4.692-13.5-13.081-.467-5.592.275-15.125,1.641-24.838-4.957.413-11.238,1.833-14.616,5.826-3.5,4.13-6.916,24.508-6.3,31.88.181,2.161-.666,2.744-2.447,2.892-3.94.328-11.5,1.725-13.536,1.9-1.525.127-2.6-.551-2.785-2.712-.9-10.8,11.905-52.184,10.306-71.376-.307-3.685-2.606-5.158-6.037-4.872-9.786.815-18.334,14.965-17.476,25.261.35,4.194,2.923,5.9,5.592,5.677,1.652-.138,3.093-1.281,3.982-1.356s1.314.4,1.388,1.292c.318,3.814-5.783,13.536-15.061,14.309-7.626.636-13.811-4.48-14.553-13.377-1.8-21.607,18.884-37.536,38.457-39.167,12.2-1.017,19.891,3.718,20.76,14.139.476,5.72-.837,14.532-2.341,24.129l15.761-1.314c1.811-12.053,4.066-23.376,5.211-28.079,1.493-6.651,13.653-11.248,17.466-11.566,1.526-.127,2.595.424,2.711,1.823s-2.425,4.681-3.612,8.874c-3.294,11.153-7.933,47.631-7.244,55.892C222.84,443.236,224.46,445.788,227.256,445.555Z" transform="translate(-135.19 -370.113)" fill="#ecf6f6"/>
        <path id="パス_174" data-name="パス 174" d="M281.6,429.15c1.186,14.235-6.821,27.188-22.454,28.491-11.185.932-18.97-4.947-19.817-15.114-1.027-12.329,7.731-25.473,25.144-26.924C273.882,414.82,280.872,420.381,281.6,429.15Zm-11.725,3.665c-4.067-1.2-5.328-2.5-5.519-4.788-.265-3.177,1.557-4.353,1.494-5.115-.054-.635-.467-.985-1.229-.922a7.078,7.078,0,0,0-3.41,2.076c-2.966,2.807-5.624,7.764-5.021,15.008.477,5.72,4.089,9.13,9.046,8.717,5.084-.424,7.954-5.91,7.584-10.358C272.643,435.272,271.722,433.429,269.879,432.815Z" transform="translate(-142.924 -373.335)" fill="#ecf6f6"/>
        <path id="パス_175" data-name="パス 175" d="M307.042,422c-.71,3.771-1.822,10.391-1.473,14.585.318,3.813,2.341,5.052,5.391,4.8,2.543-.212,4.883-2.839,6.779-4.661.827-.836,1.42-1.4,2.182-1.462a1.583,1.583,0,0,1,1.779,1.388,4.4,4.4,0,0,1-.8,2.627c-2.945,4.6-10.729,12.541-18.61,13.2-9.15.763-13.546-4.375-14.107-11.111-.679-8.134,2.733-14.817,2.2-21.172-.138-1.652-3.485-.35-3.676-2.637-.106-1.272.456-3.75,1.854-3.867,6.735-.561,12.413-7.69,15.273-13.3,1.1-2.139,2.054-2.987,3.2-3.082a1.935,1.935,0,0,1,2.2,1.863c.233,2.8-1.112,8.156-.932,10.317.138,1.652.72,2.5,4.534,2.182,1.016-.085,1.812.233,1.9,1.25.212,2.542-1.039,4.438-2.564,4.565C308.991,417.743,307.677,418.877,307.042,422Z" transform="translate(-146.45 -371.98)" fill="#ecf6f6"/>
        <path id="パス_176" data-name="パス 176" d="M361.756,433.882a4.884,4.884,0,0,1,2.542-1.748,1.47,1.47,0,0,1,1.652,1.4c.106,1.271-.444,2.34-2.182,4.533-3.824,4.8-9.533,11.544-21.861,12.572-11.948,1-20.781-3.643-21.8-15.845-1.027-12.328,7.965-24.211,24.869-25.62,8.642-.72,12.9,2.763,13.356,8.229.6,7.244-7.329,14.944-19.955,17.02.371,4.449,4.089,7.594,10.189,7.086C355.051,440.968,359.15,436.4,361.756,433.882Zm-12.773-16.6c-.159-1.906-1.261-2.839-3.294-2.67-3.813.318-8.377,6.969-7.753,14.468C345.063,427.082,349.237,420.335,348.982,417.285Z" transform="translate(-148.928 -372.856)" fill="#ecf6f6"/>
        <path id="パス_177" data-name="パス 177" d="M386.833,434.278a5.531,5.531,0,0,0,3.454-1.567c.71-.7,1.059-1.112,1.694-1.165a1.339,1.339,0,0,1,1.515,1.282,5.643,5.643,0,0,1-1.261,3.3c-2.606,4.056-6.133,7.806-12.742,8.357-8.515.709-12.9-4.3-13.451-10.91-.964-11.565,7.467-28.65,5.825-48.351-.35-4.193-2.68-6.047-5.476-5.814-1.143.1-1.822-.36-1.906-1.376-.223-2.67,6.164-7.426,13.409-8.029,6.608-.551,11.1,2.659,11.629,9.013.89,10.677-7.129,37.325-6.111,49.527C383.773,432.869,385.054,434.426,386.833,434.278Z" transform="translate(-152.232 -369.947)" fill="#ecf6f6"/>
      </g>
    </g>
    <g id="mini" transform="translate(210.069 448.443)">
      <g id="グループ_105" data-name="グループ 105" transform="translate(4.49 1.796)">
        <path id="パス_185" data-name="パス 185" d="M289.742,524.753c2.336-.118,4.006-1.843,5.448-3.437,1-1.105,1.571-1.368,2.154-1.4a1.3,1.3,0,0,1,1.35,1.22c.23,4.555-8.252,15.172-17.364,15.632-7.71.389-11.6-4.685-11.985-12.4-.377-7.476,3.324-24.644,5.9-36.251l-.934.048c-3.926,10.387-14.2,34.21-17.567,46.443-.484,2.015-1.23,3.458-2.982,3.547l-9.112.46c-1.4.07-2.366-.467-2.466-2.452-.065-1.286.515-36.214,0-46.377l-.935.048c-2.579,18.517-8.06,53.81-32.825,55.059-10.513.53-16.129-6.331-16.542-14.507-.43-8.528,8.007-15.394,12.446-15.618,1.167-.059,1.665.5,1.706,1.318.07,1.4-.7,2.378-.565,5.066a5.825,5.825,0,0,0,6.492,5.645c16.354-.825,22.92-40.155,22.278-52.888-.183-3.622-2.894-6.3-5.815-6.148-6.542.33-14.9,11.057-14.424,20.519.194,3.855,2.5,5.5,4.955,5.372,1.519-.076,2.874-1.082,3.575-1.117a1.17,1.17,0,0,1,1.35,1.22c.176,3.5-5.708,12.233-14.352,12.669-6.892.348-12.408-4.527-12.821-12.7-1-19.858,18.537-31.852,33.139-32.589,24.3-1.225,26.417,22.209,27.277,39.263.288,5.725.378,9.819.384,9.936.612-1.787,14.077-36.664,18.9-43.231,1.856-2.67,9.652-5.991,17.479-6.387a1.966,1.966,0,0,1,2.209,2c.065,1.285-2.013,4.2-3.233,7.893-3.354,10.124-8.049,40.107-7.654,47.934C285.419,522.628,287.172,524.883,289.742,524.753Z" transform="translate(-191.87 -460.713)" fill="#3a4796"/>
        <path id="パス_186" data-name="パス 186" d="M306.817,528.11c-.377-7.477,3.1-15.264,2.883-19.47-.1-1.986-.813-2.184-.89-3.7-.129-2.57,5.973-4.635,12.748-4.977,2.57-.129,4.025.851,4.125,2.838.236,4.672-3.131,12.22-2.742,19.929.154,3.038,1.994,4.7,4.1,4.595,1.986-.1,2.874-1.081,4.315-2.676.777-.859,1.227-1.234,1.927-1.269A1.667,1.667,0,0,1,335,524.931c.065,1.285-.589,2.255-1.68,3.833-2.294,3.278-7.088,8.086-14.447,8.458C311.161,537.611,307.088,533.483,306.817,528.11Zm13.044-50.2c4.205-.212,6.677,2.357,6.854,5.861.236,4.673-3.716,9.908-8.156,10.132a6.418,6.418,0,0,1-6.859-5.978C311.465,483.255,315.422,478.136,319.861,477.913Z" transform="translate(-203.592 -462.466)" fill="#3a4796"/>
        <path id="パス_187" data-name="パス 187" d="M359.989,528.521c-.359-7.126,3.143-11.987,2.913-16.542-.094-1.87-1.216-3.218-2.851-3.136-1.986.1-4.69,2.227-7,7.5-1.785,4.072-4.321,14.154-4.091,18.71.1,1.986-.693,2.495-2.446,2.584-3.5.176-8.031.991-9.784,1.078-1.518.077-2.482-.46-2.583-2.445-.218-4.323,3.893-20.341,3.575-26.648-.1-1.986-.929-2.179-1.006-3.7-.13-2.57,6.089-4.64,12.865-4.982,2.57-.129,4.025.85,4.125,2.837a27.217,27.217,0,0,1-.669,5.3c1.973-2.677,8.576-8.748,15.468-9.1,6.425-.324,9.143,2.466,9.366,6.906.271,5.374-2.7,11.379-2.463,16.169.154,3.038,1.847,4.123,3.95,4.017,1.985-.1,2.873-1.081,4.315-2.677.777-.859,1.227-1.233,1.927-1.268a1.668,1.668,0,0,1,1.719,1.553c.065,1.285-.59,2.255-1.681,3.832-2.294,3.278-7.087,8.087-14.447,8.459C364.532,537.31,360.242,533.543,359.989,528.521Z" transform="translate(-206.381 -464.716)" fill="#3a4796"/>
        <path id="パス_188" data-name="パス 188" d="M409.016,523.892a4.45,4.45,0,0,0,2.978-1.322c.788-.626,1-.988,1.705-1.023a1.137,1.137,0,0,1,1.233,1.226,5.18,5.18,0,0,1-1.255,2.992c-2.51,3.64-6.206,6.987-12.28,7.294-7.71.389-11.316-3.763-11.587-9.136-.377-7.476,3.1-15.264,2.883-19.469-.1-1.986-.814-2.184-.89-3.7-.13-2.569,5.973-4.635,12.748-4.976,2.57-.13,4.026.85,4.125,2.837.236,4.672-3.072,13.388-2.683,21.1C406.142,522.631,407.38,523.974,409.016,523.892Zm-6.161-50.165c4.2-.213,6.677,2.356,6.854,5.861.236,4.672-3.717,9.908-8.156,10.131a6.417,6.417,0,0,1-6.86-5.978C394.458,479.069,398.416,473.95,402.855,473.727Z" transform="translate(-212.057 -462.039)" fill="#3a4796"/>
      </g>
      <g id="グループ_106" data-name="グループ 106" transform="translate(0)">
        <path id="パス_189" data-name="パス 189" d="M284.742,522.753c2.336-.119,4.006-1.843,5.448-3.437,1-1.105,1.571-1.368,2.154-1.4a1.3,1.3,0,0,1,1.35,1.22c.23,4.555-8.252,15.172-17.364,15.631-7.71.389-11.6-4.685-11.985-12.4-.377-7.476,3.323-24.644,5.9-36.251l-.934.048c-3.926,10.387-14.2,34.21-17.567,46.443-.484,2.015-1.23,3.458-2.982,3.547l-9.112.46c-1.4.07-2.366-.467-2.466-2.452-.065-1.286.515-36.214,0-46.377l-.935.048c-2.579,18.517-8.06,53.81-32.825,55.059-10.513.53-16.129-6.331-16.542-14.507-.43-8.527,8.007-15.394,12.446-15.618,1.167-.059,1.665.5,1.706,1.318.07,1.4-.7,2.378-.565,5.066a5.825,5.825,0,0,0,6.492,5.645c16.354-.825,22.92-40.155,22.278-52.888-.183-3.622-2.894-6.3-5.815-6.148-6.542.33-14.9,11.057-14.424,20.519.194,3.855,2.5,5.5,4.955,5.372,1.519-.076,2.874-1.082,3.575-1.117a1.17,1.17,0,0,1,1.35,1.22c.176,3.5-5.708,12.233-14.352,12.669-6.892.348-12.408-4.527-12.821-12.7-1-19.858,18.537-31.852,33.139-32.589,24.3-1.225,26.417,22.209,27.277,39.262.288,5.725.378,9.819.384,9.935.612-1.787,14.077-36.664,18.9-43.231,1.856-2.67,9.652-5.991,17.479-6.387a1.966,1.966,0,0,1,2.209,2c.065,1.285-2.013,4.2-3.233,7.893-3.354,10.124-8.049,40.107-7.654,47.934C280.419,520.628,282.172,522.882,284.742,522.753Z" transform="translate(-186.87 -458.713)" fill="#ecf6f6"/>
        <path id="パス_190" data-name="パス 190" d="M301.817,526.11c-.377-7.477,3.1-15.264,2.883-19.47-.1-1.986-.813-2.184-.89-3.7-.129-2.57,5.973-4.635,12.748-4.977,2.57-.129,4.025.851,4.125,2.838.236,4.672-3.131,12.22-2.742,19.929.154,3.038,1.994,4.7,4.1,4.6,1.986-.1,2.874-1.081,4.315-2.676.777-.859,1.227-1.234,1.927-1.269A1.667,1.667,0,0,1,330,522.931c.065,1.285-.589,2.255-1.68,3.833-2.294,3.278-7.088,8.087-14.447,8.458C306.161,535.611,302.088,531.483,301.817,526.11Zm13.044-50.2c4.205-.212,6.677,2.357,6.854,5.861.236,4.673-3.716,9.908-8.156,10.132a6.418,6.418,0,0,1-6.859-5.978C306.465,481.255,310.422,476.136,314.861,475.913Z" transform="translate(-198.592 -460.466)" fill="#ecf6f6"/>
        <path id="パス_191" data-name="パス 191" d="M354.989,526.521c-.359-7.126,3.143-11.987,2.913-16.542-.094-1.87-1.216-3.218-2.851-3.136-1.986.1-4.69,2.227-7,7.5-1.785,4.072-4.321,14.154-4.091,18.71.1,1.986-.693,2.495-2.446,2.584-3.5.176-8.031.991-9.784,1.078-1.518.077-2.482-.46-2.583-2.445-.218-4.323,3.893-20.341,3.575-26.648-.1-1.985-.929-2.179-1.006-3.7-.13-2.57,6.089-4.64,12.865-4.982,2.57-.129,4.025.85,4.125,2.837a27.219,27.219,0,0,1-.669,5.3c1.973-2.677,8.576-8.748,15.468-9.1,6.425-.324,9.143,2.466,9.366,6.906.271,5.374-2.7,11.379-2.463,16.169.154,3.038,1.847,4.123,3.95,4.017,1.986-.1,2.873-1.081,4.315-2.677.777-.859,1.227-1.233,1.927-1.268a1.668,1.668,0,0,1,1.719,1.553c.065,1.285-.59,2.255-1.681,3.832-2.294,3.278-7.087,8.087-14.447,8.459C359.532,535.31,355.242,531.543,354.989,526.521Z" transform="translate(-201.381 -462.716)" fill="#ecf6f6"/>
        <path id="パス_192" data-name="パス 192" d="M404.016,521.892a4.45,4.45,0,0,0,2.978-1.322c.788-.626,1-.988,1.705-1.023a1.137,1.137,0,0,1,1.233,1.226,5.18,5.18,0,0,1-1.254,2.992c-2.51,3.64-6.206,6.987-12.28,7.294-7.71.389-11.316-3.763-11.587-9.136-.377-7.476,3.1-15.264,2.883-19.469-.1-1.986-.814-2.184-.89-3.7-.13-2.569,5.973-4.635,12.748-4.976,2.57-.13,4.026.85,4.125,2.837.236,4.672-3.072,13.388-2.683,21.1C401.142,520.631,402.38,521.974,404.016,521.892Zm-6.161-50.165c4.2-.213,6.677,2.356,6.854,5.861.236,4.672-3.717,9.908-8.156,10.131a6.417,6.417,0,0,1-6.86-5.978C389.458,477.069,393.416,471.95,397.855,471.727Z" transform="translate(-207.057 -460.039)" fill="#ecf6f6"/>
      </g>
    </g>
    <g id="star" transform="translate(119.353 336.67)">
      <path id="パス_178" data-name="パス 178" d="M261.053,366.9l.746-12.258.746,11.405,5.863-4.264-3.677,5.116,7.621,1.279-7.994,1.066,5.33,5.01-6.928-4.157-1.173,10.979-.533-10.34-6.5,4.69,5.33-6.609-6.715-6.4Z" transform="translate(-127.447 -324.788)" fill="#d4c040"/>
      <path id="パス_179" data-name="パス 179" d="M91.88,462.726l2.131-35.007,2.131,32.572,16.743-12.176-10.5,14.612,21.765,3.653-22.831,3.044,15.221,14.307L96.75,471.859,93.4,503.213,91.88,473.685,73.31,487.079l15.221-18.874L69.353,449.941Z" transform="translate(-69.353 -320.031)" fill="#d4c040"/>
      <path id="パス_180" data-name="パス 180" d="M468.814,398.362l1.995-32.785,2,30.5,15.68-11.4-13.608,16.163,24.156.942-21.381,2.85,14.254,13.4-18.53-11.118-3.136,29.363-1.425-27.653-17.391,12.544,14.255-17.675-17.96-17.106Z" transform="translate(-176.157 -335.725)" fill="#d4c040"/>
      <path id="パス_181" data-name="パス 181" d="M481.532,494.57l.819-13.45.819,12.514,6.433-4.678-4.035,5.614,8.362,1.4-8.772,1.17,5.848,5.5-7.6-4.561-1.286,12.046-.585-11.345-7.134,5.146,5.848-7.251-7.368-7.017Z" transform="translate(-171.053 -364.118)" fill="#d4c040"/>
      <path id="パス_182" data-name="パス 182" d="M182.834,526.279l.819-13.45.819,12.514,6.433-4.678-4.035,5.614,8.362,1.4-8.772,1.17,5.848,5.5-7.6-4.561-1.286,12.046-.585-11.345-7.134,5.146,5.848-7.251-7.368-7.017Z" transform="translate(-123.428 -349.763)" fill="#d4c040"/>
      <path id="パス_183" data-name="パス 183" d="M341.095,359.077l1.364-22.407,1.364,20.848,10.716-7.794-6.722,9.352,13.931,2.338-14.613,1.948,9.742,9.158-12.665-7.6-2.143,20.069-.974-18.9-11.885,8.573,9.742-12.08-12.275-11.691Z" transform="translate(-134.762 -336.67)" fill="#d4c040"/>
    </g>
  </g>
</svg>
