<svg xmlns="http://www.w3.org/2000/svg" width="130.958" height="29.274" viewBox="0 0 130.958 29.274">
  <g id="ttl" transform="translate(-1070.464 -2671.136)">
    <g id="shadow">
      <path id="パス_323" data-name="パス 323" d="M1090.71,2678.22c0,2.259-1.13,3.914-2.7,3.914a1.825,1.825,0,0,1-1.977-1.815c0-1.856,1.816-1.775,1.816-3.47,0-.969-.847-1.453-1.816-1.453-4.115,0-7.868,6.819-7.868,14.606,0,3.833,2.3,5.648,5.2,5.648,2.138,0,3.712-1.695,4.559-2.583.363-.4.645-.686.928-.686a.469.469,0,0,1,.525.443,3.164,3.164,0,0,1-.4,1.251c-.887,1.937-4.277,6.334-9.159,6.334-4.922,0-8.352-2.623-8.352-9.32,0-10.047,7.142-17.955,13.758-17.955C1088.329,2673.136,1090.71,2674.911,1090.71,2678.22Z" transform="translate(0 0)" fill="#3a4796"/>
      <path id="パス_324" data-name="パス 324" d="M1149.424,2706.512c0-2.179,1.291-4.276,1.291-5.81a.91.91,0,0,0-.968-.968c-.847,0-1.735.888-2.542,2.5a27.107,27.107,0,0,0-1.695,6.334c0,.686-.283.847-.847.847-1.251,0-2.865.2-3.51.2-.484,0-.766-.2-.766-.888,0-3.429,3.551-12.346,3.551-18,0-1.331-.686-1.977-1.533-1.977-.363,0-.605-.162-.605-.484,0-.848,2.138-2.179,4.438-2.179,2.138,0,3.429,1.13,3.429,3.147,0,2.26-1.775,8.312-2.34,10.087a7.292,7.292,0,0,1,5.2-2.5c2.219,0,3.43,1.009,3.43,2.744,0,2.017-1.211,3.591-1.211,5.406a1.222,1.222,0,0,0,1.251,1.372c.686,0,1.009-.323,1.533-.847.282-.282.444-.4.686-.4a.575.575,0,0,1,.565.565,2.164,2.164,0,0,1-.646,1.291,6.589,6.589,0,0,1-5.124,2.663C1150.553,2709.62,1149.424,2708.369,1149.424,2706.512Z" transform="translate(-50.685 -9.531)" fill="#3a4796"/>
      <path id="パス_325" data-name="パス 325" d="M1217.85,2739.447a3.256,3.256,0,0,1-3.107-2.138,7.948,7.948,0,0,1-5.084,2.138c-2.38,0-4.317-1.614-4.317-4.721,0-3.995,2.421-8.07,8.19-8.07,2.138,0,2.744.767,3.389.767.686,0,2.421-.767,3.349-.767a.534.534,0,0,1,.605.605c0,.968-1.412,4.115-1.412,7.262a1.471,1.471,0,0,0,1.372,1.654c.686,0,1.009-.323,1.533-.847.283-.282.444-.4.686-.4a.575.575,0,0,1,.565.565,2.165,2.165,0,0,1-.645,1.291A6.59,6.59,0,0,1,1217.85,2739.447Zm-3.954-11.015c-2.3,0-3.308,4.236-3.308,6.456,0,1.049.484,1.9,1.372,1.9.767,0,1.573-.686,2.1-1.9a16.83,16.83,0,0,0,1.049-5.285A1.057,1.057,0,0,0,1213.9,2728.432Z" transform="translate(-98.453 -39.359)" fill="#3a4796"/>
      <path id="パス_326" data-name="パス 326" d="M1274.2,2738.4c0,.686-.282.847-.887.847-1.211,0-2.784.2-3.389.2-.524,0-.847-.2-.847-.888,0-1.493,1.695-6.94,1.695-9.118,0-.686-.282-.767-.282-1.292,0-.887,2.179-1.493,4.519-1.493.888,0,1.372.363,1.372,1.049a7.207,7.207,0,0,1-.242,1.573,4.238,4.238,0,0,1,3.551-2.461,1.729,1.729,0,0,1,1.856,1.9c0,1.493-.968,3.188-2.622,3.188a1.574,1.574,0,0,1-1.695-1.533c-.242.081-.766.6-1.372,1.735A18.879,18.879,0,0,0,1274.2,2738.4Z" transform="translate(-145.324 -39.359)" fill="#3a4796"/>
      <path id="パス_327" data-name="パス 327" d="M1327.941,2739.447a3.256,3.256,0,0,1-3.107-2.138,7.948,7.948,0,0,1-5.084,2.138c-2.38,0-4.317-1.614-4.317-4.721,0-3.995,2.421-8.07,8.19-8.07,2.138,0,2.744.767,3.389.767.686,0,2.421-.767,3.349-.767a.534.534,0,0,1,.605.605c0,.968-1.412,4.115-1.412,7.262a1.471,1.471,0,0,0,1.372,1.654c.686,0,1.009-.323,1.533-.847.282-.282.444-.4.686-.4a.575.575,0,0,1,.565.565,2.164,2.164,0,0,1-.646,1.291A6.59,6.59,0,0,1,1327.941,2739.447Zm-3.954-11.015c-2.3,0-3.309,4.236-3.309,6.456,0,1.049.484,1.9,1.372,1.9.767,0,1.573-.686,2.1-1.9a16.827,16.827,0,0,0,1.049-5.285A1.057,1.057,0,0,0,1323.987,2728.432Z" transform="translate(-179.413 -39.359)" fill="#3a4796"/>
      <path id="パス_328" data-name="パス 328" d="M1393.045,2734.583a1.549,1.549,0,0,1,.847-.484.465.465,0,0,1,.484.484c0,.4-.242.726-.847,1.372a9.455,9.455,0,0,1-7.141,3.389c-3.752,0-6.456-1.977-6.456-5.366,0-4.2,3.228-7.625,8.433-7.625,3.066,0,4.2,1.291,4.2,2.825a2.346,2.346,0,0,1-2.381,2.582c-.928,0-1.614-.525-1.614-1.332,0-.888.605-1.25.645-1.735,0-.323-.242-.525-.726-.525-1.17,0-2.905,2.139-2.905,5a3.137,3.137,0,0,0,3.228,3.47A6.822,6.822,0,0,0,1393.045,2734.583Z" transform="translate(-226.845 -39.135)" fill="#3a4796"/>
      <path id="パス_329" data-name="パス 329" d="M1436.555,2717.519a20.727,20.727,0,0,0-.847,4.559c0,1.21.6,1.654,1.574,1.654.807,0,1.614-.766,2.259-1.291.283-.242.484-.4.726-.4a.5.5,0,0,1,.524.484,1.393,1.393,0,0,1-.323.807c-1.049,1.372-3.712,3.672-6.214,3.672-2.9,0-4.156-1.735-4.156-3.874,0-2.583,1.251-4.6,1.251-6.617,0-.524-1.09-.2-1.09-.928,0-.4.242-1.17.686-1.17,2.138,0,4.115-2.1,5.164-3.793.4-.646.726-.888,1.089-.888a.612.612,0,0,1,.646.646c0,.888-.565,2.542-.565,3.228,0,.524.161.807,1.372.807.323,0,.565.121.565.444,0,.807-.444,1.372-.928,1.372A1.515,1.515,0,0,0,1436.555,2717.519Z" transform="translate(-263.738 -26.912)" fill="#3a4796"/>
      <path id="パス_330" data-name="パス 330" d="M1479.083,2734.583a1.548,1.548,0,0,1,.847-.484.465.465,0,0,1,.484.484c0,.4-.2.726-.807,1.372a9.161,9.161,0,0,1-7.222,3.389c-3.793,0-6.456-1.694-6.456-5.568,0-3.914,3.147-7.424,8.513-7.424,2.744,0,3.994,1.21,3.994,2.945,0,2.3-2.7,4.519-6.738,4.842,0,1.412,1.089,2.5,3.026,2.5A6.828,6.828,0,0,0,1479.083,2734.583Zm-3.591-5.568a.844.844,0,0,0-.968-.928c-1.211,0-2.824,1.977-2.824,4.357C1474,2732,1475.492,2729.983,1475.492,2729.015Z" transform="translate(-290.088 -39.135)" fill="#3a4796"/>
      <path id="パス_331" data-name="パス 331" d="M1520.609,2738.4c0,.686-.282.847-.887.847-1.211,0-2.784.2-3.389.2-.524,0-.847-.2-.847-.888,0-1.493,1.695-6.94,1.695-9.118,0-.686-.283-.767-.283-1.292,0-.887,2.179-1.493,4.519-1.493.888,0,1.372.363,1.372,1.049a7.192,7.192,0,0,1-.242,1.573,4.238,4.238,0,0,1,3.55-2.461,1.729,1.729,0,0,1,1.856,1.9c0,1.493-.968,3.188-2.622,3.188a1.573,1.573,0,0,1-1.695-1.533c-.242.081-.767.6-1.372,1.735A18.879,18.879,0,0,0,1520.609,2738.4Z" transform="translate(-326.53 -39.359)" fill="#3a4796"/>
    </g>
    <g id="ttl-2" data-name="ttl" transform="translate(-1 -2)">
      <path id="パス_323-2" data-name="パス 323" d="M1090.71,2678.22c0,2.259-1.13,3.914-2.7,3.914a1.825,1.825,0,0,1-1.977-1.815c0-1.856,1.816-1.775,1.816-3.47,0-.969-.847-1.453-1.816-1.453-4.115,0-7.868,6.819-7.868,14.606,0,3.833,2.3,5.648,5.2,5.648,2.138,0,3.712-1.695,4.559-2.583.363-.4.645-.686.928-.686a.469.469,0,0,1,.525.443,3.164,3.164,0,0,1-.4,1.251c-.887,1.937-4.277,6.334-9.159,6.334-4.922,0-8.352-2.623-8.352-9.32,0-10.047,7.142-17.955,13.758-17.955C1088.329,2673.136,1090.71,2674.911,1090.71,2678.22Z" transform="translate(0 0)" fill="#ecf6f6"/>
      <path id="パス_324-2" data-name="パス 324" d="M1149.424,2706.512c0-2.179,1.291-4.276,1.291-5.81a.91.91,0,0,0-.968-.968c-.847,0-1.735.888-2.542,2.5a27.107,27.107,0,0,0-1.695,6.334c0,.686-.283.847-.847.847-1.251,0-2.865.2-3.51.2-.484,0-.766-.2-.766-.888,0-3.429,3.551-12.346,3.551-18,0-1.331-.686-1.977-1.533-1.977-.363,0-.605-.162-.605-.484,0-.848,2.138-2.179,4.438-2.179,2.138,0,3.429,1.13,3.429,3.147,0,2.26-1.775,8.312-2.34,10.087a7.292,7.292,0,0,1,5.2-2.5c2.219,0,3.43,1.009,3.43,2.744,0,2.017-1.211,3.591-1.211,5.406a1.222,1.222,0,0,0,1.251,1.372c.686,0,1.009-.323,1.533-.847.282-.282.444-.4.686-.4a.575.575,0,0,1,.565.565,2.164,2.164,0,0,1-.646,1.291,6.589,6.589,0,0,1-5.124,2.663C1150.553,2709.62,1149.424,2708.369,1149.424,2706.512Z" transform="translate(-50.685 -9.531)" fill="#ecf6f6"/>
      <path id="パス_325-2" data-name="パス 325" d="M1217.85,2739.447a3.256,3.256,0,0,1-3.107-2.138,7.948,7.948,0,0,1-5.084,2.138c-2.38,0-4.317-1.614-4.317-4.721,0-3.995,2.421-8.07,8.19-8.07,2.138,0,2.744.767,3.389.767.686,0,2.421-.767,3.349-.767a.534.534,0,0,1,.605.605c0,.968-1.412,4.115-1.412,7.262a1.471,1.471,0,0,0,1.372,1.654c.686,0,1.009-.323,1.533-.847.283-.282.444-.4.686-.4a.575.575,0,0,1,.565.565,2.165,2.165,0,0,1-.645,1.291A6.59,6.59,0,0,1,1217.85,2739.447Zm-3.954-11.015c-2.3,0-3.308,4.236-3.308,6.456,0,1.049.484,1.9,1.372,1.9.767,0,1.573-.686,2.1-1.9a16.83,16.83,0,0,0,1.049-5.285A1.057,1.057,0,0,0,1213.9,2728.432Z" transform="translate(-98.453 -39.359)" fill="#ecf6f6"/>
      <path id="パス_326-2" data-name="パス 326" d="M1274.2,2738.4c0,.686-.282.847-.887.847-1.211,0-2.784.2-3.389.2-.524,0-.847-.2-.847-.888,0-1.493,1.695-6.94,1.695-9.118,0-.686-.282-.767-.282-1.292,0-.887,2.179-1.493,4.519-1.493.888,0,1.372.363,1.372,1.049a7.207,7.207,0,0,1-.242,1.573,4.238,4.238,0,0,1,3.551-2.461,1.729,1.729,0,0,1,1.856,1.9c0,1.493-.968,3.188-2.622,3.188a1.574,1.574,0,0,1-1.695-1.533c-.242.081-.766.6-1.372,1.735A18.879,18.879,0,0,0,1274.2,2738.4Z" transform="translate(-145.324 -39.359)" fill="#ecf6f6"/>
      <path id="パス_327-2" data-name="パス 327" d="M1327.941,2739.447a3.256,3.256,0,0,1-3.107-2.138,7.948,7.948,0,0,1-5.084,2.138c-2.38,0-4.317-1.614-4.317-4.721,0-3.995,2.421-8.07,8.19-8.07,2.138,0,2.744.767,3.389.767.686,0,2.421-.767,3.349-.767a.534.534,0,0,1,.605.605c0,.968-1.412,4.115-1.412,7.262a1.471,1.471,0,0,0,1.372,1.654c.686,0,1.009-.323,1.533-.847.282-.282.444-.4.686-.4a.575.575,0,0,1,.565.565,2.164,2.164,0,0,1-.646,1.291A6.59,6.59,0,0,1,1327.941,2739.447Zm-3.954-11.015c-2.3,0-3.309,4.236-3.309,6.456,0,1.049.484,1.9,1.372,1.9.767,0,1.573-.686,2.1-1.9a16.827,16.827,0,0,0,1.049-5.285A1.057,1.057,0,0,0,1323.987,2728.432Z" transform="translate(-179.413 -39.359)" fill="#ecf6f6"/>
      <path id="パス_328-2" data-name="パス 328" d="M1393.045,2734.583a1.549,1.549,0,0,1,.847-.484.465.465,0,0,1,.484.484c0,.4-.242.726-.847,1.372a9.455,9.455,0,0,1-7.141,3.389c-3.752,0-6.456-1.977-6.456-5.366,0-4.2,3.228-7.625,8.433-7.625,3.066,0,4.2,1.291,4.2,2.825a2.346,2.346,0,0,1-2.381,2.582c-.928,0-1.614-.525-1.614-1.332,0-.888.605-1.25.645-1.735,0-.323-.242-.525-.726-.525-1.17,0-2.905,2.139-2.905,5a3.137,3.137,0,0,0,3.228,3.47A6.822,6.822,0,0,0,1393.045,2734.583Z" transform="translate(-226.845 -39.135)" fill="#ecf6f6"/>
      <path id="パス_329-2" data-name="パス 329" d="M1436.555,2717.519a20.727,20.727,0,0,0-.847,4.559c0,1.21.6,1.654,1.574,1.654.807,0,1.614-.766,2.259-1.291.283-.242.484-.4.726-.4a.5.5,0,0,1,.524.484,1.393,1.393,0,0,1-.323.807c-1.049,1.372-3.712,3.672-6.214,3.672-2.9,0-4.156-1.735-4.156-3.874,0-2.583,1.251-4.6,1.251-6.617,0-.524-1.09-.2-1.09-.928,0-.4.242-1.17.686-1.17,2.138,0,4.115-2.1,5.164-3.793.4-.646.726-.888,1.089-.888a.612.612,0,0,1,.646.646c0,.888-.565,2.542-.565,3.228,0,.524.161.807,1.372.807.323,0,.565.121.565.444,0,.807-.444,1.372-.928,1.372A1.515,1.515,0,0,0,1436.555,2717.519Z" transform="translate(-263.738 -26.912)" fill="#ecf6f6"/>
      <path id="パス_330-2" data-name="パス 330" d="M1479.083,2734.583a1.548,1.548,0,0,1,.847-.484.465.465,0,0,1,.484.484c0,.4-.2.726-.807,1.372a9.161,9.161,0,0,1-7.222,3.389c-3.793,0-6.456-1.694-6.456-5.568,0-3.914,3.147-7.424,8.513-7.424,2.744,0,3.994,1.21,3.994,2.945,0,2.3-2.7,4.519-6.738,4.842,0,1.412,1.089,2.5,3.026,2.5A6.828,6.828,0,0,0,1479.083,2734.583Zm-3.591-5.568a.844.844,0,0,0-.968-.928c-1.211,0-2.824,1.977-2.824,4.357C1474,2732,1475.492,2729.983,1475.492,2729.015Z" transform="translate(-290.088 -39.135)" fill="#ecf6f6"/>
      <path id="パス_331-2" data-name="パス 331" d="M1520.609,2738.4c0,.686-.282.847-.887.847-1.211,0-2.784.2-3.389.2-.524,0-.847-.2-.847-.888,0-1.493,1.695-6.94,1.695-9.118,0-.686-.283-.767-.283-1.292,0-.887,2.179-1.493,4.519-1.493.888,0,1.372.363,1.372,1.049a7.192,7.192,0,0,1-.242,1.573,4.238,4.238,0,0,1,3.55-2.461,1.729,1.729,0,0,1,1.856,1.9c0,1.493-.968,3.188-2.622,3.188a1.573,1.573,0,0,1-1.695-1.533c-.242.081-.767.6-1.372,1.735A18.879,18.879,0,0,0,1520.609,2738.4Z" transform="translate(-326.53 -39.359)" fill="#ecf6f6"/>
    </g>
  </g>
</svg>
